<svg width="86" height="51" viewBox="0 0 86 51" fill="none" xmlns="http://www.w3.org/2000/svg">
<path d="M18.656 23.1603C18.5072 23.4377 18.2854 23.796 17.9905 24.2352C17.6991 24.664 17.3394 25.1054 16.9117 25.5595C16.4839 26.0135 15.986 26.4505 15.418 26.8704C14.8606 27.2937 14.2361 27.637 13.5447 27.9001C12.8672 28.1562 12.1209 28.3024 11.3056 28.3388C10.4869 28.3857 9.61462 28.2579 8.68881 27.9554C7.63676 27.6117 6.70402 27.0276 5.89059 26.2029C5.07715 25.3783 4.44636 24.3688 3.99821 23.1745C3.55007 21.9802 3.3232 20.6253 3.31763 19.1099C3.31549 17.5839 3.59798 15.953 4.16508 14.2171C4.56721 12.9862 5.07121 11.8177 5.67708 10.7116C6.28295 9.60544 6.96117 8.59863 7.71173 7.69114C8.47281 6.78709 9.29057 5.9947 10.165 5.31397C11.0534 4.62615 11.9794 4.09036 12.9431 3.70659C13.9068 3.32282 14.8977 3.10514 15.9159 3.05355C16.9375 2.99143 17.9586 3.12706 18.9791 3.46045C19.7471 3.71135 20.3984 4.0522 20.9329 4.483C21.4675 4.91379 21.8799 5.39782 22.1701 5.93508C22.4709 6.47578 22.6423 7.05575 22.6845 7.67499C22.7407 8.28715 22.6674 8.90359 22.4646 9.5243C22.3306 9.9346 22.1351 10.319 21.8783 10.6775C21.6354 11.029 21.3731 11.3508 21.0913 11.643C20.813 11.9247 20.5328 12.1766 20.2506 12.3988C19.9824 12.6139 19.7577 12.785 19.5764 12.9121L19.4386 12.6924C19.6198 12.5653 19.7992 12.4085 19.9765 12.2219C20.1679 12.0283 20.3486 11.8137 20.5187 11.5782C20.6888 11.3427 20.8465 11.0915 20.9919 10.8246C21.1408 10.5472 21.265 10.256 21.3647 9.95088C21.5468 9.39329 21.6187 8.83461 21.5804 8.27485C21.5526 7.71852 21.4147 7.1961 21.1668 6.70758C20.9223 6.20855 20.5678 5.76093 20.1035 5.36471C19.6496 4.97193 19.086 4.66555 18.4127 4.44559C17.4028 4.11564 16.4219 3.96401 15.47 3.99071C14.5322 4.01033 13.6372 4.18368 12.7852 4.51078C11.9366 4.82736 11.1308 5.28018 10.3678 5.86925C9.6188 6.45123 8.92817 7.13961 8.29594 7.93439C7.6637 8.72917 7.09672 9.60931 6.59501 10.5748C6.09329 11.5403 5.66543 12.5649 5.31142 13.6485C5.03302 14.5006 4.81957 15.3857 4.67107 16.3035C4.53652 17.2143 4.47895 18.1212 4.49836 19.0241C4.51777 19.9269 4.62102 20.8048 4.80813 21.6577C5.00919 22.5035 5.30259 23.2805 5.68833 23.9887C6.08459 24.7003 6.58532 25.3238 7.19052 25.8592C7.80624 26.398 8.53493 26.8049 9.37657 27.0798C10.4917 27.4441 11.5127 27.5623 12.4394 27.4342C13.3696 27.2956 14.2079 27.0106 14.9543 26.5792C15.7041 26.1372 16.3589 25.5943 16.9185 24.9504C17.4887 24.31 17.9695 23.6579 18.361 22.994L18.656 23.1603ZM20.7894 29.2365C21.0419 29.3189 21.3063 29.3471 21.5826 29.321C21.8624 29.2843 22.1314 29.1917 22.3895 29.0431C22.651 28.8841 22.8859 28.6639 23.0943 28.3827C23.3131 28.1048 23.4913 27.7555 23.6287 27.3347C23.7422 26.9875 23.8066 26.6477 23.8221 26.3151C23.8411 25.9719 23.8042 25.6572 23.7115 25.3707C23.6293 25.0877 23.479 24.8349 23.2607 24.6122C23.0529 24.3929 22.7754 24.2266 22.4282 24.1132C22.1862 24.0341 21.9288 24.0024 21.6559 24.018C21.3864 24.0232 21.1244 24.0947 20.8697 24.2328C20.6184 24.3603 20.3851 24.5577 20.1697 24.8249C19.9578 25.0817 19.783 25.4205 19.6456 25.8413C19.5356 26.178 19.4694 26.5231 19.447 26.8768C19.4281 27.2199 19.4545 27.5487 19.5264 27.8633C19.6088 28.1813 19.7505 28.4604 19.9514 28.7007C20.1629 28.9445 20.4422 29.123 20.7894 29.2365ZM19.9741 29.8608C19.2798 29.634 18.7856 29.2222 18.4915 28.6255C18.2009 28.0182 18.1982 27.278 18.4834 26.4048C18.6759 25.8156 18.9634 25.3099 19.3459 24.8876C19.7318 24.4548 20.1567 24.1163 20.6208 23.872C21.0988 23.6206 21.5861 23.4655 22.0827 23.4065C22.5794 23.3475 23.0328 23.3851 23.4431 23.5191C24.1059 23.7356 24.5633 24.1354 24.8153 24.7184C25.0673 25.3014 25.0489 26.0347 24.7602 26.9184C24.5678 27.5076 24.2856 28.015 23.9136 28.4408C23.5522 28.8699 23.143 29.2136 22.686 29.4718C22.243 29.723 21.782 29.8868 21.303 29.9631C20.8274 30.029 20.3844 29.9949 19.9741 29.8608ZM27.8897 24.867C27.9423 24.8841 27.9706 24.94 27.9747 25.0344C27.9787 25.1289 27.9671 25.2357 27.9398 25.3549C27.9231 25.4775 27.8923 25.6072 27.8477 25.744C27.8064 25.8702 27.7686 25.9859 27.7342 26.0911C27.6449 26.3647 27.5416 26.6453 27.4243 26.933C27.321 27.2136 27.2141 27.4872 27.1037 27.7539C27.0073 28.0135 26.916 28.2573 26.8298 28.4853C26.7471 28.7028 26.6817 28.8852 26.6336 29.0325C26.5442 29.306 26.4826 29.5304 26.4486 29.7056C26.4181 29.8702 26.445 29.9663 26.5291 29.9938C26.5817 30.011 26.6724 29.965 26.8013 29.8557C26.9301 29.7464 27.0728 29.6126 27.2294 29.4541C27.3999 29.2886 27.5686 29.1109 27.7354 28.9209C27.9023 28.7309 28.0553 28.5654 28.1945 28.4246C28.3718 28.238 28.5666 28.0339 28.7788 27.8121C29.0049 27.5833 29.2294 27.3772 29.4523 27.1938C29.6787 27 29.8965 26.8499 30.1059 26.7437C30.3258 26.6409 30.5251 26.6187 30.704 26.6771C30.8197 26.7149 30.9093 26.7791 30.9729 26.8697C31.0469 26.9638 31.0984 27.0737 31.1271 27.1996C31.1593 27.3149 31.1723 27.4355 31.166 27.5616C31.1737 27.6805 31.1726 27.7908 31.1628 27.8923C31.1153 28.1446 31.0214 28.5389 30.8811 29.0753C30.7548 29.6045 30.6269 30.174 30.4976 30.7838C30.3577 31.3901 30.3588 31.8679 30.5009 32.217C30.6464 32.5557 30.9033 32.7851 31.2715 32.9054C31.4188 32.9535 31.538 32.9808 31.629 32.9873C31.7306 32.9972 31.8129 33.0124 31.876 33.033C31.9286 33.0502 31.922 33.1063 31.856 33.2012C31.8386 33.2188 31.802 33.2417 31.7462 33.2701C31.7043 33.2913 31.6344 33.3092 31.5365 33.3238C31.4386 33.3384 31.3109 33.3374 31.1533 33.3209C31.0062 33.3077 30.8327 33.2685 30.6328 33.2032C30.2962 33.0932 30.0345 32.9496 29.848 32.7722C29.6649 32.5843 29.5444 32.347 29.4867 32.0604C29.429 31.7737 29.4305 31.4307 29.4911 31.0313C29.5551 30.6215 29.6643 30.1448 29.8185 29.6014C29.8799 29.342 29.938 29.0932 29.9925 28.8548C30.0611 28.6094 30.1035 28.3904 30.1198 28.1978C30.1501 27.9982 30.1509 27.8354 30.1222 27.7096C30.0969 27.5732 30.0263 27.4861 29.9106 27.4483C29.8159 27.4174 29.6693 27.4743 29.4706 27.619C29.2825 27.7671 29.0824 27.952 28.8702 28.1738C28.6615 28.3851 28.4546 28.6086 28.2495 28.8443C28.0549 29.0834 27.895 29.2699 27.7698 29.4036C27.3768 29.8225 27.0499 30.164 26.789 30.428C26.5386 30.6955 26.2758 30.9473 26.0007 31.1835C25.9206 31.2505 25.8404 31.2999 25.7601 31.3319C25.6903 31.3673 25.6134 31.3713 25.5292 31.3438C25.403 31.3026 25.3374 31.1647 25.3325 30.9302C25.3276 30.6958 25.3488 30.4349 25.396 30.1476C25.4538 29.8638 25.5222 29.5834 25.601 29.3064C25.6833 29.0189 25.7485 28.8015 25.7966 28.6542C25.8516 28.4859 25.9186 28.2807 25.9977 28.0388C26.0872 27.8002 26.1751 27.567 26.2612 27.3389C26.3474 27.1109 26.4214 26.9022 26.4832 26.7129C26.5556 26.5269 26.6021 26.4024 26.6227 26.3393C26.6434 26.2762 26.6656 26.1903 26.6894 26.0816C26.7272 25.9659 26.7633 25.8554 26.7977 25.7502C26.8355 25.6345 26.8629 25.5329 26.8799 25.4452C26.9108 25.3506 26.9314 25.2874 26.9417 25.2559C26.9692 25.1717 27.0126 25.1102 27.0719 25.0714C27.1451 25.0254 27.2132 24.9953 27.2761 24.9809C27.339 24.9665 27.4404 24.9414 27.5801 24.9056C27.7234 24.8592 27.8265 24.8463 27.8897 24.867ZM33.7145 33.7035C33.8723 33.7551 34.0909 33.7275 34.3703 33.6208C34.6496 33.5142 34.9549 33.3461 35.286 33.1166C35.6276 32.8906 35.9725 32.619 36.3206 32.3019C36.6721 31.9743 36.9937 31.6136 37.2854 31.2199C37.0177 30.9345 36.8494 30.5943 36.7805 30.1992C36.7222 29.8075 36.7514 29.4329 36.8683 29.0752C36.9405 28.8542 37.0355 28.6524 37.1534 28.4697C37.2818 28.2904 37.4227 28.1443 37.576 28.0314C37.7328 27.908 37.888 27.8248 38.0418 27.7819C38.206 27.7424 38.3618 27.7467 38.5091 27.7948C38.709 27.8601 38.8499 28.0168 38.9319 28.2648C39.0173 28.5023 38.9827 28.8578 38.8281 29.3312C38.7559 29.5521 38.6384 29.8048 38.4756 30.0893C38.3268 30.3667 38.1395 30.6548 37.9138 30.9536L38.2294 31.0567C38.4819 31.1392 38.7271 31.1728 38.965 31.1573C39.2063 31.1314 39.4335 31.0775 39.6465 30.9958C39.8735 30.9069 40.081 30.7884 40.2691 30.6403C40.4678 30.4956 40.6454 30.344 40.8019 30.1856L40.9603 30.3422C40.8491 30.4688 40.6873 30.6255 40.4749 30.8123C40.2731 31.0025 40.0361 31.1754 39.764 31.3311C39.4954 31.4762 39.1985 31.5829 38.8734 31.6514C38.5589 31.7233 38.2385 31.7059 37.9124 31.5994C37.8493 31.5788 37.7861 31.5582 37.723 31.5375C37.6599 31.5169 37.5949 31.484 37.5282 31.4389C37.2086 31.8469 36.8522 32.2427 36.459 32.6266C36.0693 32.9999 35.667 33.3226 35.2521 33.5946C34.8478 33.87 34.4394 34.0684 34.0272 34.1899C33.6289 34.3043 33.2561 34.3048 32.9089 34.1913C32.7722 34.1467 32.6546 34.0966 32.5563 34.0412C32.4614 33.9753 32.3908 33.8707 32.3444 33.7275C32.3015 33.5737 32.288 33.3656 32.3039 33.103C32.3304 32.8438 32.393 32.4917 32.4918 32.0466C32.5907 31.6015 32.7344 31.0547 32.923 30.406C33.1256 29.7503 33.3781 28.9596 33.6806 28.0338C33.8284 27.5814 33.7813 27.3157 33.5393 27.2366C33.4867 27.2194 33.4429 27.2109 33.4079 27.2111C33.3624 27.2079 33.3291 27.2029 33.308 27.196C33.2239 27.1685 33.1956 27.1127 33.223 27.0285C33.2334 26.9969 33.3189 26.9667 33.4798 26.9377C33.6335 26.8948 33.8577 26.9215 34.1522 27.0177C34.4889 27.1277 34.684 27.2788 34.7377 27.4709C34.8053 27.656 34.7841 27.9169 34.6741 28.2536C34.3854 29.1373 34.1484 29.8807 33.963 30.4838C33.7881 31.0903 33.6529 31.5934 33.5573 31.993C33.4617 32.3925 33.4022 32.6991 33.379 32.9128C33.3558 33.1264 33.355 33.2892 33.3767 33.401C33.4089 33.5163 33.4548 33.5896 33.5145 33.6207C33.5742 33.6519 33.6409 33.6795 33.7145 33.7035ZM37.304 29.0778C37.2078 29.3724 37.171 29.6631 37.1938 29.95C37.227 30.2403 37.3598 30.4932 37.5921 30.7088C37.7065 30.5366 37.8035 30.3646 37.883 30.1926C37.9764 30.0135 38.0558 29.824 38.1211 29.6242C38.1554 29.519 38.1863 29.4068 38.2135 29.2876C38.2443 29.1579 38.2593 29.0406 38.2587 28.9356C38.2581 28.8306 38.2365 28.7362 38.194 28.6525C38.1515 28.5687 38.0776 28.5097 37.9724 28.4753C37.8567 28.4375 37.7327 28.4785 37.6004 28.5983C37.4716 28.7076 37.3728 28.8674 37.304 29.0778ZM45.4741 29.7734C45.6006 29.8496 45.6398 29.9614 45.5916 30.1087C45.5779 30.1507 45.5432 30.2035 45.4876 30.2668C45.4459 30.323 45.392 30.3811 45.3259 30.441C45.2737 30.4938 45.218 30.5396 45.1587 30.5785C45.1029 30.6068 45.0592 30.6159 45.0276 30.6055C44.975 30.5884 44.9171 30.552 44.8537 30.4963C44.7938 30.4302 44.7024 30.3537 44.5793 30.267C44.4598 30.1697 44.2947 30.0692 44.084 29.9654C43.8769 29.8512 43.5944 29.7356 43.2367 29.6188C42.7317 29.4538 42.28 29.411 41.8815 29.4904C41.4829 29.5698 41.2287 29.7778 41.1187 30.1144C41.0397 30.3564 41.0726 30.5942 41.2175 30.8279C41.3763 31.0544 41.5771 31.2597 41.8197 31.4437C42.0728 31.6312 42.3345 31.7924 42.6048 31.9273C42.8856 32.0656 43.1049 32.1605 43.2628 32.2121C43.3785 32.2499 43.4452 32.295 43.4631 32.3474C43.4948 32.3927 43.5056 32.4311 43.4953 32.4627C43.4678 32.5469 43.4138 32.5874 43.3332 32.5844C43.2667 32.5743 43.1756 32.5679 43.0601 32.5651C42.7557 32.5704 42.4373 32.6003 42.1052 32.6548C41.7764 32.6987 41.4584 32.7811 41.1511 32.902C40.8578 33.0157 40.598 33.1695 40.3717 33.3634C40.1453 33.5573 39.9858 33.7962 39.893 34.0803C39.7383 34.5537 39.7988 35.0101 40.0744 35.4494C40.364 35.8817 40.856 36.2112 41.5503 36.4381C42.3394 36.6959 43.0347 36.7949 43.6363 36.7353C44.2414 36.6652 44.7638 36.5273 45.2036 36.3217C45.6539 36.1195 46.0253 35.8915 46.3177 35.6378C46.6137 35.3735 46.8365 35.1727 46.9861 35.0353L47.0602 35.1293C46.7129 35.5864 46.3251 35.9895 45.8967 36.3386C45.4788 36.6911 45.0167 36.9651 44.5104 37.1606C44.018 37.349 43.4779 37.452 42.89 37.4695C42.3055 37.4765 41.6766 37.3701 41.0033 37.1501C40.593 37.0161 40.2315 36.8397 39.9187 36.6211C39.6024 36.413 39.3473 36.1783 39.1532 35.9169C38.9591 35.6556 38.8367 35.3711 38.7859 35.0634C38.735 34.7557 38.7646 34.4335 38.8746 34.0969C39.0017 33.7076 39.2011 33.4002 39.4728 33.1745C39.7444 32.9489 40.0252 32.7845 40.3151 32.6812C40.6084 32.5675 40.881 32.4994 41.1329 32.4768C41.3987 32.4473 41.5858 32.4269 41.6942 32.4157C41.3853 32.2566 41.1252 32.0726 40.9139 31.8639C40.7413 31.6794 40.5983 31.4581 40.4847 31.1997C40.3746 30.9309 40.378 30.6176 40.4948 30.2599C40.6014 29.9338 40.7765 29.665 41.0202 29.4535C41.2674 29.2316 41.5517 29.0741 41.8732 28.9812C42.2051 28.8917 42.5602 28.8563 42.9383 28.8751C43.3303 28.8867 43.7263 28.9578 44.126 29.0884C44.3575 29.1641 44.5838 29.2555 44.8049 29.3626C45.0366 29.4732 45.2597 29.6102 45.4741 29.7734ZM48.4903 31.597C48.5429 31.6142 48.5712 31.6701 48.5753 31.7645C48.5793 31.859 48.5677 31.9658 48.5404 32.085C48.5237 32.2076 48.4929 32.3373 48.4483 32.474C48.407 32.6003 48.3692 32.716 48.3348 32.8212C48.2455 33.0947 48.1422 33.3754 48.0249 33.6631C47.9216 33.9437 47.8147 34.2173 47.7043 34.484C47.6079 34.7436 47.5166 34.9874 47.4304 35.2154C47.3477 35.4329 47.2823 35.6153 47.2342 35.7625C47.1449 36.0361 47.0832 36.2604 47.0492 36.4356C47.0187 36.6003 47.0456 36.6964 47.1297 36.7239C47.1823 36.7411 47.273 36.6951 47.4019 36.5858C47.5307 36.4765 47.6734 36.3427 47.83 36.1842C48.0005 36.0187 48.1692 35.8409 48.336 35.6509C48.5029 35.4609 48.6559 35.2955 48.7951 35.1547C48.9724 34.9681 49.1672 34.764 49.3794 34.5422C49.6055 34.3133 49.83 34.1073 50.0529 33.9239C50.2793 33.7301 50.4971 33.58 50.7065 33.4738C50.9264 33.3709 51.1257 33.3488 51.3046 33.4072C51.4203 33.445 51.5099 33.5092 51.5735 33.5998C51.6476 33.6939 51.699 33.8038 51.7277 33.9296C51.7599 34.0449 51.7729 34.1656 51.7666 34.2917C51.7743 34.4106 51.7733 34.5209 51.7634 34.6224C51.7159 34.8747 51.622 35.269 51.4817 35.8054C51.3554 36.3346 51.2275 36.9041 51.0982 37.5139C50.9583 38.1202 50.9594 38.598 51.1015 38.9471C51.247 39.2857 51.5039 39.5152 51.8721 39.6355C52.0194 39.6836 52.1386 39.7109 52.2296 39.7174C52.3312 39.7272 52.4135 39.7425 52.4766 39.7631C52.5292 39.7803 52.5226 39.8363 52.4566 39.9312C52.4392 39.9488 52.4026 39.9718 52.3468 40.0002C52.3049 40.0214 52.235 40.0393 52.1371 40.0539C52.0392 40.0685 51.9115 40.0675 51.7539 40.051C51.6068 40.0378 51.4333 39.9986 51.2334 39.9333C50.8968 39.8233 50.6351 39.6797 50.4486 39.5023C50.2655 39.3144 50.145 39.0771 50.0873 38.7904C50.0296 38.5038 50.0311 38.1608 50.0917 37.7614C50.1557 37.3515 50.2649 36.8749 50.4191 36.3315C50.4805 36.0721 50.5386 35.8233 50.5931 35.5849C50.6617 35.3395 50.7041 35.1205 50.7204 34.9279C50.7508 34.7282 50.7515 34.5655 50.7228 34.4397C50.6975 34.3033 50.6269 34.2162 50.5112 34.1784C50.4165 34.1475 50.2699 34.2044 50.0712 34.3491C49.8831 34.4972 49.683 34.6821 49.4708 34.9039C49.2621 35.1151 49.0552 35.3386 48.8501 35.5744C48.6555 35.8135 48.4956 36 48.3704 36.1337C47.9774 36.5526 47.6505 36.894 47.3896 37.1581C47.1392 37.4256 46.8764 37.6774 46.6013 37.9136C46.5212 37.9805 46.441 38.03 46.3607 38.062C46.291 38.0974 46.214 38.1014 46.1298 38.0739C46.0036 38.0326 45.938 37.8948 45.9331 37.6603C45.9282 37.4258 45.9494 37.165 45.9966 36.8777C46.0544 36.5938 46.1228 36.3134 46.2016 36.0365C46.2839 35.749 46.3491 35.5316 46.3972 35.3843C46.4522 35.216 46.5192 35.0108 46.5983 34.7689C46.6878 34.5303 46.7757 34.297 46.8618 34.069C46.948 33.841 47.022 33.6323 47.0838 33.443C47.1562 33.257 47.2027 33.1325 47.2233 33.0694C47.244 33.0062 47.2662 32.9204 47.29 32.8117C47.3279 32.696 47.3639 32.5855 47.3983 32.4803C47.4361 32.3646 47.4635 32.2629 47.4805 32.1753C47.5114 32.0806 47.532 32.0175 47.5423 31.986C47.5698 31.9018 47.6132 31.8403 47.6725 31.8014C47.7457 31.7555 47.8138 31.7253 47.8767 31.711C47.9396 31.6966 48.041 31.6715 48.1807 31.6356C48.324 31.5893 48.4271 31.5764 48.4903 31.597ZM55.1183 34.2863C55.2025 34.3138 55.2728 34.3659 55.3292 34.4426C55.3997 34.5121 55.4526 34.5818 55.488 34.6516C55.5339 34.7248 55.5624 34.7982 55.5733 34.8716C55.5982 34.938 55.6089 34.9764 55.6055 34.9869C55.6021 34.9974 55.5674 35.0501 55.5014 35.145C55.4495 35.2328 55.3646 35.3856 55.2469 35.6033C55.1398 35.8244 55.0085 36.1192 54.8532 36.4877C54.7119 36.849 54.5502 37.3085 54.368 37.8661C54.124 38.613 54.0433 39.163 54.1259 39.516C54.219 39.8724 54.3971 40.0936 54.6601 40.1795C54.9231 40.2655 55.2066 40.2708 55.5107 40.1954C55.8253 40.1236 56.1395 39.9992 56.4534 39.8223C56.7674 39.6454 57.0759 39.4318 57.3789 39.1815C57.6958 38.9241 57.9865 38.6581 58.2508 38.3835L58.3249 38.4776C58.2484 38.5691 58.132 38.7115 57.9757 38.9049C57.8228 39.0879 57.642 39.2849 57.4332 39.4962C57.2245 39.7074 56.986 39.9206 56.7178 40.1357C56.4636 40.3437 56.1846 40.5204 55.881 40.6657C55.5913 40.804 55.2857 40.902 54.964 40.96C54.6563 41.0108 54.3447 40.9847 54.029 40.8816C53.8081 40.8094 53.6167 40.7003 53.4548 40.5543C53.3035 40.4117 53.1903 40.2058 53.1151 39.9368C53.054 39.6607 53.0466 39.309 53.0931 38.8817C53.15 38.4578 53.2816 37.9303 53.4879 37.2991C53.5944 36.9729 53.7183 36.6292 53.8597 36.2679C54.015 35.8994 54.1652 35.5643 54.3104 35.2624C54.4696 34.9535 54.6203 34.7058 54.7627 34.5195C54.9051 34.3331 55.0236 34.2554 55.1183 34.2863ZM56.7756 30.4964C57.0386 30.5824 57.197 30.7389 57.2509 30.9661C57.3082 31.1827 57.2939 31.4226 57.208 31.6856C57.1083 31.9907 56.9468 32.1999 56.7235 32.3132C56.5002 32.4266 56.2675 32.4437 56.0255 32.3647C55.8467 32.3062 55.6954 32.1811 55.5718 31.9894C55.4481 31.7976 55.4362 31.5492 55.5358 31.2441C55.6458 30.9074 55.8142 30.6772 56.0409 30.5533C56.2677 30.4295 56.5126 30.4105 56.7756 30.4964ZM63.2658 35.5858C63.3922 35.662 63.4314 35.7738 63.3833 35.9211C63.3695 35.9632 63.3348 36.0159 63.2792 36.0792C63.2376 36.1354 63.1837 36.1935 63.1175 36.2534C63.0653 36.3062 63.0096 36.3521 62.9503 36.3909C62.8945 36.4192 62.8508 36.4283 62.8192 36.4179C62.7666 36.4008 62.7087 36.3644 62.6453 36.3087C62.5855 36.2426 62.494 36.1661 62.371 36.0794C62.2514 35.9821 62.0863 35.8816 61.8757 35.7779C61.6685 35.6636 61.386 35.548 61.0284 35.4312C60.5234 35.2662 60.0716 35.2234 59.6731 35.3028C59.2746 35.3822 59.0203 35.5902 58.9103 35.9269C58.8313 36.1688 58.8642 36.4066 59.0091 36.6403C59.168 36.8668 59.3687 37.0721 59.6113 37.2562C59.8644 37.4436 60.1261 37.6048 60.3964 37.7397C60.6773 37.878 60.8966 37.973 61.0544 38.0245C61.1701 38.0623 61.2369 38.1074 61.2547 38.1598C61.2865 38.2051 61.2972 38.2436 61.2869 38.2751C61.2594 38.3593 61.2054 38.3999 61.1249 38.3968C61.0583 38.3867 60.9673 38.3803 60.8517 38.3775C60.5473 38.3828 60.229 38.4127 59.8968 38.4672C59.5681 38.5112 59.25 38.5936 58.9428 38.7144C58.6495 38.8282 58.3896 38.982 58.1633 39.1758C57.937 39.3697 57.7774 39.6086 57.6846 39.8927C57.5299 40.3661 57.5904 40.8225 57.866 41.2618C58.1556 41.6941 58.6476 42.0236 59.3419 42.2505C60.131 42.5083 60.8263 42.6073 61.428 42.5477C62.033 42.4776 62.5555 42.3397 62.9952 42.1341C63.4455 41.9319 63.8169 41.7039 64.1094 41.4502C64.4053 41.1859 64.6281 40.9851 64.7778 40.8477L64.8518 40.9418C64.5046 41.3988 64.1167 41.8019 63.6883 42.151C63.2704 42.5035 62.8083 42.7775 62.302 42.973C61.8096 43.1615 61.2695 43.2644 60.6816 43.282C60.0972 43.289 59.4683 43.1825 58.795 42.9625C58.3847 42.8285 58.0231 42.6521 57.7103 42.4335C57.3941 42.2254 57.1389 41.9907 56.9448 41.7293C56.7508 41.468 56.6283 41.1835 56.5775 40.8758C56.5266 40.5681 56.5562 40.2459 56.6662 39.9093C56.7934 39.52 56.9928 39.2126 57.2644 38.9869C57.5361 38.7613 57.8168 38.5969 58.1067 38.4937C58.4 38.3799 58.6726 38.3118 58.9245 38.2893C59.1903 38.2597 59.3774 38.2393 59.4859 38.2281C59.1769 38.069 58.9168 37.8851 58.7056 37.6763C58.533 37.4919 58.3899 37.2705 58.2763 37.0121C58.1662 36.7433 58.1696 36.43 58.2865 36.0723C58.393 35.7462 58.5681 35.4774 58.8119 35.266C59.059 35.044 59.3433 34.8865 59.6648 34.7936C59.9968 34.7041 60.3518 34.6687 60.7299 34.6875C61.122 34.6991 61.5179 34.7703 61.9177 34.9009C62.1491 34.9765 62.3754 35.0679 62.5966 35.175C62.8282 35.2857 63.0513 35.4226 63.2658 35.5858ZM66.2819 37.4095C66.3345 37.4266 66.3628 37.4825 66.3669 37.5769C66.371 37.6714 66.3594 37.7782 66.3321 37.8974C66.3153 38.02 66.2846 38.1497 66.2399 38.2864C66.1987 38.4127 66.1608 38.5284 66.1265 38.6336C66.0371 38.9072 65.9338 39.1878 65.8165 39.4755C65.7132 39.7561 65.6063 40.0297 65.4959 40.2964C65.3995 40.556 65.3082 40.7998 65.2221 41.0278C65.1394 41.2453 65.074 41.4277 65.0258 41.5749C64.9365 41.8485 64.8748 42.0729 64.8409 42.2481C64.8104 42.4127 64.8372 42.5088 64.9214 42.5363C64.974 42.5535 65.0647 42.5075 65.1935 42.3982C65.3224 42.2889 65.4651 42.1551 65.6216 41.9966C65.7921 41.8311 65.9608 41.6534 66.1277 41.4634C66.2945 41.2734 66.4475 41.1079 66.5867 40.9671C66.7641 40.7805 66.9589 40.5764 67.171 40.3546C67.3972 40.1258 67.6217 39.9197 67.8446 39.7363C68.0709 39.5425 68.2888 39.3924 68.4981 39.2862C68.718 39.1834 68.9174 39.1612 69.0962 39.2196C69.2119 39.2574 69.3016 39.3216 69.3651 39.4122C69.4392 39.5063 69.4906 39.6162 69.5193 39.7421C69.5515 39.8574 69.5645 39.978 69.5583 40.1041C69.566 40.223 69.5649 40.3333 69.555 40.4348C69.5075 40.6871 69.4136 41.0814 69.2733 41.6178C69.147 42.147 69.0192 42.7165 68.8898 43.3263C68.7499 43.9326 68.751 44.4104 68.8931 44.7595C69.0387 45.0982 69.2955 45.3276 69.6638 45.4479C69.811 45.496 69.9302 45.5233 70.0212 45.5298C70.1228 45.5397 70.2051 45.5549 70.2683 45.5755C70.3209 45.5927 70.3142 45.6488 70.2483 45.7437C70.2309 45.7613 70.1943 45.7842 70.1384 45.8126C70.0966 45.8338 70.0267 45.8517 69.9288 45.8663C69.8308 45.8809 69.7031 45.8799 69.5455 45.8634C69.3984 45.8502 69.2249 45.811 69.025 45.7457C68.6884 45.6357 68.4268 45.4921 68.2402 45.3147C68.0571 45.1268 67.9367 44.8895 67.879 44.6028C67.8212 44.3162 67.8227 43.9732 67.8833 43.5738C67.9473 43.1639 68.0565 42.6873 68.2107 42.1439C68.2722 41.8845 68.3302 41.6357 68.3848 41.3973C68.4533 41.1519 68.4957 40.9329 68.5121 40.7403C68.5424 40.5406 68.5432 40.3779 68.5144 40.2521C68.4891 40.1157 68.4186 40.0286 68.3028 39.9908C68.2082 39.9599 68.0615 40.0168 67.8629 40.1615C67.6748 40.3096 67.4746 40.4945 67.2624 40.7163C67.0537 40.9276 66.8468 41.151 66.6417 41.3868C66.4471 41.6259 66.2873 41.8124 66.1621 41.9461C65.7691 42.365 65.4421 42.7065 65.1812 42.9705C64.9308 43.238 64.6681 43.4898 64.393 43.726C64.3129 43.793 64.2327 43.8424 64.1524 43.8744C64.0826 43.9098 64.0056 43.9138 63.9214 43.8863C63.7952 43.8451 63.7296 43.7072 63.7247 43.4727C63.7198 43.2383 63.741 42.9774 63.7883 42.6901C63.8461 42.4063 63.9144 42.1259 63.9932 41.8489C64.0755 41.5614 64.1407 41.344 64.1888 41.1967C64.2438 41.0284 64.3108 40.8232 64.3899 40.5813C64.4795 40.3427 64.5673 40.1095 64.6535 39.8814C64.7396 39.6534 64.8136 39.4447 64.8755 39.2554C64.9478 39.0694 64.9943 38.9449 65.015 38.8818C65.0356 38.8187 65.0578 38.7328 65.0817 38.6241C65.1195 38.5084 65.1556 38.3979 65.1899 38.2927C65.2277 38.177 65.2551 38.0753 65.2721 37.9877C65.303 37.8931 65.3237 37.8299 65.334 37.7984C65.3615 37.7142 65.4049 37.6527 65.4641 37.6138C65.5373 37.5679 65.6054 37.5378 65.6683 37.5234C65.7312 37.509 65.8326 37.4839 65.9724 37.4481C66.1156 37.4017 66.2188 37.3888 66.2819 37.4095ZM76.9496 44.894C76.8072 45.0804 76.5987 45.3266 76.324 45.6328C76.0494 45.9389 75.7186 46.2209 75.3316 46.4787C74.9586 46.7294 74.538 46.9122 74.0697 47.027C73.6119 47.1452 73.1339 47.1114 72.6358 46.9253C72.1937 46.746 71.858 46.4908 71.6285 46.1596C71.399 45.8285 71.2669 45.3953 71.2322 44.86C71.2009 44.3142 71.2618 43.6646 71.4148 42.9112C71.5712 42.1472 71.8178 41.2498 72.1547 40.2188C72.4777 39.2298 72.7945 38.3494 73.1048 37.5776C73.4186 36.7952 73.7173 36.1127 74.0008 35.53C73.51 35.3929 73.0857 35.266 72.728 35.1491C72.3598 35.0288 72.1021 34.9446 71.9548 34.8965C71.6497 34.7968 71.3567 34.6778 71.0759 34.5395C70.7846 34.3978 70.5246 34.2313 70.2959 34.0402C70.0673 33.849 69.87 33.6332 69.704 33.3927C69.5415 33.1417 69.4296 32.8606 69.3683 32.5495L69.4778 32.4281C69.4814 32.4526 69.5168 32.5224 69.584 32.6375C69.6441 32.7386 69.7762 32.869 69.9801 33.0288C70.1841 33.1886 70.4739 33.3706 70.8496 33.5749C71.2288 33.7686 71.734 33.9686 72.3652 34.1748L74.3378 34.8192C74.8155 33.9274 75.2141 33.2775 75.5336 32.8696C75.8671 32.4546 76.0861 32.1943 76.1905 32.0886C76.333 31.9373 76.5039 31.8243 76.7029 31.7496C76.9125 31.6783 77.0751 31.6616 77.1909 31.6994C77.4118 31.7716 77.5219 32.0404 77.5212 32.5059C77.5205 32.9714 77.3758 33.646 77.0871 34.5298C77.0355 34.6876 76.9753 34.8542 76.9063 35.0296C76.8408 35.1945 76.7788 35.3664 76.7204 35.5452C77.2288 35.6997 77.7109 35.8455 78.1668 35.9828C78.6331 36.1235 79.0468 36.247 79.408 36.3534C79.7796 36.4631 80.0882 36.5523 80.3336 36.6208C80.5895 36.6928 80.756 36.7355 80.8331 36.7491C80.8857 36.7663 80.9768 36.7902 81.1065 36.8209C81.2362 36.8517 81.3221 36.8739 81.3642 36.8876C81.5325 36.9426 81.5995 37.0227 81.5651 37.1279C81.517 37.2752 81.425 37.3965 81.289 37.4918C81.1671 37.5801 80.9659 37.59 80.6855 37.5217C80.6294 37.515 80.4682 37.474 80.2017 37.3986C79.9492 37.3161 79.6266 37.2165 79.2339 37.0999C78.8412 36.9832 78.3995 36.8564 77.9087 36.7193C77.4213 36.5717 76.9217 36.426 76.4098 36.2821C76.0125 37.1419 75.5035 38.0585 74.8828 39.0317C74.2655 39.9944 73.5121 40.9999 72.6224 42.0482C72.4376 42.7563 72.3064 43.3538 72.2288 43.8408C72.1618 44.3312 72.1502 44.7408 72.1942 45.0695C72.2416 45.3877 72.3463 45.6373 72.5084 45.8184C72.681 46.0028 72.9094 46.1415 73.1934 46.2343C73.4985 46.3339 73.8015 46.3689 74.1023 46.3391C74.4031 46.3093 74.6862 46.2446 74.9516 46.145C75.231 46.0383 75.4822 45.9108 75.7053 45.7625C75.9424 45.6071 76.1427 45.4571 76.3064 45.3126C76.4805 45.1716 76.6128 45.0518 76.7032 44.9533C76.8042 44.8581 76.8616 44.8071 76.8756 44.8L76.9496 44.894ZM75.7944 36.081C75.6155 36.0226 75.4402 35.9711 75.2684 35.9266C75.0967 35.8822 74.9214 35.8307 74.7425 35.7723C74.515 36.3617 74.2877 36.9685 74.0604 37.5929C73.8437 38.2207 73.6425 38.8186 73.4569 39.3867L72.8743 41.1699C73.4922 40.3123 74.0436 39.462 74.5286 38.6191C75.024 37.7796 75.446 36.9336 75.7944 36.081ZM75.0479 35.0512C75.2163 35.1062 75.3863 35.1559 75.5581 35.2004C75.7438 35.2378 75.9261 35.2857 76.1049 35.3441L76.2802 34.8076C76.4521 34.2816 76.5738 33.8556 76.6453 33.5297C76.7169 33.2037 76.7591 32.9497 76.772 32.7677C76.7989 32.5785 76.7946 32.449 76.7592 32.3792C76.7377 32.3024 76.7112 32.2588 76.6797 32.2485C76.5955 32.221 76.4961 32.2758 76.3814 32.413C76.2667 32.5502 76.1384 32.747 75.9964 33.0033C75.8579 33.2491 75.7074 33.5493 75.5451 33.9037C75.3827 34.2582 75.217 34.6407 75.0479 35.0512Z" fill="black"/>
</svg>
