<svg width="70" height="32" viewBox="0 0 70 32" fill="none" xmlns="http://www.w3.org/2000/svg">
<path d="M34.4985 4.5752C34.2771 4.24316 34.0447 3.91667 33.8012 3.5957C33.5577 3.26367 33.2644 2.96484 32.9213 2.69922C32.5782 2.43359 32.1742 2.22331 31.7094 2.06836C31.2446 1.90234 30.6856 1.81934 30.0326 1.81934C28.8705 1.81934 27.8302 2.10156 26.9115 2.66602C25.9929 3.23047 25.1795 3.99967 24.4711 4.97363C23.7628 5.93652 23.1485 7.0599 22.6283 8.34375C22.1082 9.61654 21.6544 10.9723 21.267 12.4111C20.8907 13.8389 20.5753 15.2998 20.3207 16.7939C20.0772 18.2881 19.867 19.738 19.6899 21.1436C19.5239 22.5381 19.3855 23.8441 19.2748 25.0615C19.1752 26.2679 19.0811 27.3027 18.9926 28.166C18.9373 28.3431 18.8155 28.498 18.6274 28.6309C18.4392 28.7747 18.2787 28.8467 18.1459 28.8467C17.991 28.8467 17.8969 28.7028 17.8637 28.415C17.7752 27.8063 17.6755 27.0814 17.5649 26.2402C17.4542 25.3991 17.3214 24.5026 17.1664 23.5508C17.0115 22.599 16.8344 21.6139 16.6352 20.5957C16.436 19.5775 16.198 18.5814 15.9213 17.6074C15.6557 16.6335 15.3458 15.7148 14.9916 14.8516C14.6375 13.9772 14.2335 13.2025 13.7797 12.5273C13.5584 13.3132 13.2983 14.1875 12.9994 15.1504C12.7006 16.1133 12.3686 17.1204 12.0033 18.1719C11.6492 19.2122 11.2563 20.2747 10.8246 21.3594C10.4041 22.4329 9.96135 23.4733 9.49651 24.4805C9.03167 25.4876 8.54469 26.4339 8.03557 27.3193C7.52646 28.1937 7.00074 28.9574 6.45842 29.6104C5.92717 30.2633 5.37932 30.778 4.81487 31.1543C4.26148 31.5417 3.70256 31.7354 3.13811 31.7354C2.60686 31.7354 2.15309 31.6357 1.77678 31.4365C1.41155 31.2373 1.10719 31.0049 0.863697 30.7393C0.620207 30.4847 0.432056 30.2357 0.299244 29.9922C0.177499 29.7487 0.0944913 29.5827 0.0502205 29.4941L0.183033 29.3945C0.282642 29.5052 0.404387 29.627 0.548267 29.7598C0.703215 29.9036 0.8969 30.0365 1.12932 30.1582C1.36174 30.2799 1.64397 30.3796 1.976 30.457C2.30803 30.5456 2.70647 30.5898 3.17131 30.5898C3.78004 30.5898 4.37216 30.3906 4.94768 29.9922C5.5232 29.6048 6.07659 29.0736 6.60784 28.3984C7.15016 27.7344 7.6648 26.9596 8.15178 26.0742C8.63876 25.1777 9.09807 24.2314 9.52971 23.2354C9.96135 22.2282 10.3653 21.1989 10.7416 20.1475C11.129 19.085 11.4832 18.0557 11.8041 17.0596C12.1251 16.0524 12.4073 15.1061 12.6508 14.2207C12.9054 13.3242 13.1267 12.5439 13.3149 11.8799C12.8943 11.3486 12.4184 10.9336 11.8871 10.6348C11.3559 10.3359 10.7748 10.1865 10.144 10.1865C9.59059 10.1865 9.09807 10.2751 8.66643 10.4521C8.23479 10.6292 7.86956 10.8672 7.57073 11.166C7.28297 11.4538 7.06161 11.7913 6.90667 12.1787C6.75172 12.5661 6.67424 12.9645 6.67424 13.374C6.67424 13.8167 6.74065 14.2152 6.87346 14.5693C7.00628 14.9124 7.16676 15.2168 7.35491 15.4824C7.54306 15.737 7.74228 15.9528 7.95256 16.1299C8.16285 16.307 8.351 16.4453 8.51702 16.5449L8.3842 16.7109C8.27353 16.6556 8.09091 16.5339 7.83635 16.3457C7.5818 16.1576 7.3217 15.9141 7.05608 15.6152C6.79045 15.3053 6.55803 14.9456 6.35881 14.5361C6.1596 14.1266 6.05999 13.6729 6.05999 13.1748C6.05999 12.4997 6.1762 11.9186 6.40862 11.4316C6.65211 10.9336 6.962 10.5241 7.33831 10.2031C7.72568 9.88216 8.15732 9.64421 8.63323 9.48926C9.12021 9.32324 9.61272 9.24023 10.1108 9.24023C10.808 9.24023 11.4444 9.37305 12.0199 9.63867C12.6065 9.9043 13.1378 10.2806 13.6137 10.7676C13.6469 10.6569 13.6801 10.5462 13.7133 10.4355C13.7465 10.3138 13.7797 10.2197 13.8129 10.1533C13.8683 9.9873 13.9347 9.86556 14.0121 9.78809C14.1007 9.69954 14.1837 9.63867 14.2612 9.60547C14.3386 9.57227 14.405 9.55566 14.4604 9.55566C14.5157 9.5446 14.5489 9.53906 14.56 9.53906C14.5268 9.72721 14.4714 9.9707 14.394 10.2695C14.3165 10.5684 14.228 10.9115 14.1283 11.2988C14.6264 11.9186 15.0691 12.638 15.4565 13.457C15.8438 14.265 16.1869 15.1227 16.4858 16.0303C16.7846 16.9378 17.0392 17.873 17.2494 18.8359C17.4708 19.7878 17.6589 20.7119 17.8139 21.6084C17.9688 22.4938 18.1017 23.3294 18.2123 24.1152C18.3341 24.901 18.4448 25.5817 18.5444 26.1572C18.6329 25.2275 18.7491 24.1484 18.893 22.9199C19.0369 21.6914 19.214 20.391 19.4242 19.0186C19.6345 17.6351 19.8891 16.224 20.1879 14.7852C20.4978 13.3464 20.863 11.9463 21.2836 10.585C21.7042 9.21257 22.1912 7.92318 22.7446 6.7168C23.2979 5.49935 23.9288 4.43685 24.6371 3.5293C25.3455 2.62174 26.1368 1.90788 27.0112 1.3877C27.8966 0.856445 28.8816 0.59082 29.9662 0.59082C30.4864 0.59082 30.9568 0.66276 31.3774 0.806641C31.7979 0.950521 32.1687 1.13867 32.4897 1.37109C32.8217 1.60352 33.1039 1.86361 33.3364 2.15137C33.5798 2.43913 33.7846 2.73242 33.9506 3.03125C34.1277 3.31901 34.2716 3.5957 34.3823 3.86133C34.4929 4.11589 34.5759 4.33171 34.6313 4.50879L34.4985 4.5752ZM24.9992 26.9541C25.2648 26.9541 25.5249 26.8988 25.7795 26.7881C26.034 26.6663 26.2609 26.4948 26.4601 26.2734C26.6593 26.041 26.8143 25.7588 26.925 25.4268C27.0467 25.0947 27.1076 24.7074 27.1076 24.2646C27.1076 23.8994 27.0633 23.5563 26.9748 23.2354C26.8862 22.9033 26.7534 22.6156 26.5763 22.3721C26.4103 22.1286 26.189 21.9349 25.9123 21.791C25.6466 21.6471 25.3312 21.5752 24.966 21.5752C24.7114 21.5752 24.4569 21.625 24.2023 21.7246C23.9477 21.8132 23.7209 21.9626 23.5216 22.1729C23.3224 22.3721 23.1619 22.6322 23.0402 22.9531C22.9185 23.263 22.8576 23.6393 22.8576 24.082C22.8576 24.4362 22.9019 24.7848 22.9904 25.1279C23.0789 25.46 23.2062 25.7643 23.3722 26.041C23.5493 26.3177 23.7707 26.5391 24.0363 26.7051C24.313 26.8711 24.6339 26.9541 24.9992 26.9541ZM24.4181 27.8008C23.6877 27.8008 23.09 27.5628 22.6252 27.0869C22.1603 26.5999 21.9279 25.8971 21.9279 24.9785C21.9279 24.3587 22.0441 23.7887 22.2765 23.2686C22.5089 22.7373 22.8078 22.2835 23.173 21.9072C23.5493 21.5199 23.9644 21.221 24.4181 21.0107C24.8719 20.8005 25.3146 20.6953 25.7463 20.6953C26.4435 20.6953 27.0024 20.9333 27.423 21.4092C27.8436 21.8851 28.0539 22.5879 28.0539 23.5176C28.0539 24.1374 27.9432 24.7074 27.7218 25.2275C27.5116 25.7477 27.2293 26.2015 26.8752 26.5889C26.5321 26.9652 26.1447 27.264 25.713 27.4854C25.2814 27.6956 24.8498 27.8008 24.4181 27.8008ZM34.5387 25.9912C34.915 25.3936 35.2526 24.7848 35.5514 24.165C35.8502 23.5342 36.0993 22.9199 36.2985 22.3223C36.0328 21.946 35.806 21.5641 35.6178 21.1768C35.4407 20.7783 35.3522 20.3688 35.3522 19.9482C35.3522 19.5387 35.3909 19.168 35.4684 18.8359C35.5459 18.5039 35.651 18.2217 35.7838 17.9893C35.9166 17.7568 36.066 17.5798 36.2321 17.458C36.3981 17.3252 36.5696 17.2588 36.7467 17.2588C36.9902 17.2588 37.1839 17.3805 37.3278 17.624C37.4827 17.8675 37.5491 18.1774 37.527 18.5537C37.5048 18.9964 37.444 19.4723 37.3444 19.9814C37.2558 20.4906 37.123 21.0107 36.9459 21.542C37.1673 21.7965 37.3942 22.0511 37.6266 22.3057C37.8701 22.5492 38.0859 22.8037 38.2741 23.0693C38.4733 23.335 38.6338 23.6227 38.7555 23.9326C38.8883 24.2314 38.9547 24.5579 38.9547 24.9121C38.9547 25.3991 38.8606 25.8473 38.6725 26.2568C38.4954 26.6663 38.2796 27.0205 38.025 27.3193C37.7705 27.6182 37.5048 27.8506 37.2282 28.0166C36.9515 28.1826 36.7135 28.2656 36.5143 28.2656C36.1712 28.2656 35.9056 28.1771 35.7174 28C35.5403 27.8229 35.4518 27.6292 35.4518 27.4189C35.4518 27.2529 35.4795 27.0869 35.5348 26.9209C35.5901 26.7549 35.651 26.6055 35.7174 26.4727C35.7949 26.3288 35.8668 26.2126 35.9332 26.124C36.0107 26.0355 36.066 25.9912 36.0993 25.9912C36.1546 25.9912 36.1878 26.0133 36.1989 26.0576C36.221 26.0908 36.2321 26.124 36.2321 26.1572C36.2321 26.2126 36.2265 26.29 36.2155 26.3896C36.2044 26.4893 36.1989 26.5723 36.1989 26.6387C36.1989 26.8268 36.2597 26.9818 36.3815 27.1035C36.5143 27.2253 36.7246 27.2861 37.0123 27.2861C37.1341 27.2861 37.2724 27.2585 37.4274 27.2031C37.5823 27.1478 37.7317 27.0592 37.8756 26.9375C38.0195 26.8158 38.1357 26.6663 38.2243 26.4893C38.3239 26.3011 38.3737 26.0798 38.3737 25.8252C38.3737 25.5928 38.3183 25.3493 38.2076 25.0947C38.097 24.8402 37.9531 24.5801 37.776 24.3145C37.5989 24.0488 37.3997 23.7777 37.1784 23.501C36.9681 23.2243 36.7578 22.9421 36.5475 22.6543C36.2929 23.2852 36.0107 23.8994 35.7008 24.4971C35.402 25.0837 35.081 25.626 34.7379 26.124L34.5387 25.9912ZM35.8004 19.085C35.8004 19.5055 35.8779 19.8818 36.0328 20.2139C36.1878 20.5348 36.3925 20.8503 36.6471 21.1602C36.7356 20.8171 36.7965 20.4906 36.8297 20.1807C36.8629 19.8597 36.8795 19.5553 36.8795 19.2676C36.8795 18.4928 36.708 18.1055 36.3649 18.1055C36.2653 18.1055 36.1435 18.1829 35.9996 18.3379C35.8668 18.4818 35.8004 18.7308 35.8004 19.085ZM46.5384 24.3975C46.461 24.6188 46.3392 24.9176 46.1732 25.2939C46.0072 25.6702 45.7803 26.041 45.4925 26.4062C45.2159 26.7604 44.8728 27.0648 44.4633 27.3193C44.0648 27.5739 43.6 27.6901 43.0687 27.668C42.5928 27.6348 42.1944 27.4964 41.8734 27.2529C41.5524 27.0094 41.2924 26.6387 41.0931 26.1406C40.8939 25.6315 40.75 24.9951 40.6615 24.2314C40.573 23.4567 40.5287 22.527 40.5287 21.4424C40.5287 20.402 40.5564 19.4668 40.6117 18.6367C40.667 17.7956 40.739 17.054 40.8275 16.4121C40.3184 16.4342 39.8757 16.4453 39.4994 16.4453C39.112 16.4453 38.8409 16.4453 38.6859 16.4453C38.3649 16.4453 38.0495 16.4232 37.7396 16.3789C37.4187 16.3346 37.1198 16.2572 36.8431 16.1465C36.5664 16.0358 36.3119 15.8919 36.0795 15.7148C35.847 15.5267 35.6534 15.2943 35.4984 15.0176L35.5648 14.8682C35.5759 14.8903 35.6312 14.9456 35.7308 15.0342C35.8194 15.1117 35.9854 15.1947 36.2289 15.2832C36.4724 15.3717 36.8044 15.4548 37.225 15.5322C37.6455 15.5986 38.1879 15.6318 38.8519 15.6318H40.9271C41.1042 14.6357 41.2813 13.8942 41.4584 13.4072C41.6465 12.9092 41.7738 12.5937 41.8402 12.4609C41.9287 12.2728 42.056 12.1123 42.222 11.9795C42.3991 11.8467 42.5485 11.7803 42.6703 11.7803C42.9027 11.7803 43.0909 12.0016 43.2347 12.4443C43.3786 12.887 43.4506 13.5732 43.4506 14.5029C43.4506 14.6689 43.445 14.846 43.434 15.0342C43.4229 15.2113 43.4174 15.3939 43.4174 15.582C43.9486 15.571 44.4522 15.5599 44.9281 15.5488C45.4151 15.5378 45.8467 15.5267 46.223 15.5156C46.6104 15.5046 46.9314 15.4935 47.1859 15.4824C47.4515 15.4714 47.6231 15.4603 47.7006 15.4492C47.7559 15.4492 47.85 15.4437 47.9828 15.4326C48.1156 15.4215 48.2041 15.416 48.2484 15.416C48.4255 15.416 48.514 15.4714 48.514 15.582C48.514 15.737 48.4642 15.8809 48.3646 16.0137C48.2761 16.1354 48.0879 16.2074 47.8002 16.2295C47.7448 16.2406 47.5788 16.2516 47.3021 16.2627C47.0365 16.2627 46.6989 16.2682 46.2894 16.2793C45.8799 16.2904 45.4206 16.307 44.9115 16.3291C44.4024 16.3402 43.8822 16.3568 43.3509 16.3789C43.2403 17.3197 43.0411 18.349 42.7533 19.4668C42.4655 20.5736 42.0616 21.7633 41.5414 23.0361C41.5856 23.7666 41.6465 24.3753 41.724 24.8623C41.8125 25.3493 41.9287 25.7422 42.0726 26.041C42.2165 26.3288 42.3936 26.5335 42.6039 26.6553C42.8252 26.777 43.0853 26.8379 43.3842 26.8379C43.7051 26.8379 44.0039 26.777 44.2806 26.6553C44.5573 26.5335 44.8064 26.3841 45.0277 26.207C45.2601 26.0189 45.4593 25.8197 45.6254 25.6094C45.8024 25.388 45.9463 25.1833 46.057 24.9951C46.1787 24.807 46.2673 24.652 46.3226 24.5303C46.389 24.4085 46.4278 24.3421 46.4388 24.3311L46.5384 24.3975ZM42.7035 16.3789C42.5153 16.3789 42.3327 16.3844 42.1556 16.3955C41.9786 16.4066 41.7959 16.4121 41.6078 16.4121C41.5746 17.043 41.5469 17.6904 41.5248 18.3545C41.5137 19.0186 41.5082 19.6494 41.5082 20.2471V22.123C41.8291 21.1159 42.0892 20.1364 42.2884 19.1846C42.4987 18.2327 42.6371 17.2975 42.7035 16.3789ZM41.6742 15.6318C41.8513 15.6318 42.0284 15.6263 42.2054 15.6152C42.3936 15.5931 42.5817 15.582 42.7699 15.582V15.0176C42.7699 14.4642 42.7533 14.0215 42.7201 13.6895C42.6869 13.3574 42.6481 13.1029 42.6039 12.9258C42.5707 12.7376 42.5264 12.6159 42.4711 12.5605C42.4268 12.4941 42.3881 12.4609 42.3549 12.4609C42.2663 12.4609 42.1888 12.5439 42.1224 12.71C42.056 12.876 41.9952 13.1029 41.9398 13.3906C41.8845 13.6673 41.8347 13.9993 41.7904 14.3867C41.7461 14.7741 41.7074 15.1891 41.6742 15.6318ZM49.1251 20.9941C49.4018 20.9941 49.6231 21.055 49.7892 21.1768C49.9552 21.2874 50.0769 21.4258 50.1544 21.5918C50.2429 21.7467 50.2983 21.9072 50.3204 22.0732C50.3426 22.2393 50.3536 22.3776 50.3536 22.4883C50.3536 22.6211 50.337 22.8314 50.3038 23.1191C50.2706 23.4069 50.2374 23.7057 50.2042 24.0156C50.171 24.3255 50.1378 24.6133 50.1046 24.8789C50.0714 25.1445 50.0548 25.3216 50.0548 25.4102C50.0548 25.6315 50.0714 25.8363 50.1046 26.0244C50.1378 26.2015 50.1987 26.362 50.2872 26.5059C50.3758 26.6497 50.4975 26.7604 50.6524 26.8379C50.8074 26.9154 51.0121 26.9541 51.2667 26.9541C51.7315 26.9541 52.2185 26.7217 52.7276 26.2568C53.2368 25.792 53.7127 25.1501 54.1554 24.3311L54.255 24.3975C54.1332 24.807 53.9451 25.2275 53.6905 25.6592C53.436 26.0798 53.1427 26.4671 52.8106 26.8213C52.4786 27.1755 52.1245 27.4688 51.7481 27.7012C51.3718 27.9225 51.0066 28.0332 50.6524 28.0332C50.3536 28.0332 50.1101 27.9723 49.922 27.8506C49.7449 27.7178 49.6065 27.5573 49.5069 27.3691C49.4073 27.1699 49.3409 26.9596 49.3077 26.7383C49.2745 26.5059 49.2579 26.29 49.2579 26.0908C49.2579 25.8473 49.2801 25.5651 49.3243 25.2441C49.3686 24.9121 49.4129 24.5856 49.4571 24.2646C49.5125 23.9326 49.5623 23.6227 49.6065 23.335C49.6508 23.0472 49.673 22.8203 49.673 22.6543C49.673 22.5104 49.6453 22.3942 49.5899 22.3057C49.5457 22.2171 49.4848 22.1507 49.4073 22.1064C49.3299 22.0511 49.2524 22.0179 49.1749 22.0068C49.0974 21.9958 49.0366 21.9902 48.9923 21.9902C48.8705 21.9902 48.7101 22.0068 48.5108 22.04C48.3227 22.0732 48.0515 22.0898 47.6974 22.0898C47.5978 22.0898 47.4981 22.0843 47.3985 22.0732C47.2989 22.0622 47.1938 22.0456 47.0831 22.0234C47.0499 22.4551 46.978 22.8757 46.8673 23.2852C46.7677 23.6947 46.6515 24.071 46.5187 24.4141C46.3969 24.7572 46.2696 25.056 46.1368 25.3105C46.004 25.554 45.8933 25.7256 45.8048 25.8252C45.6609 25.8252 45.589 25.7588 45.589 25.626C45.6 25.5596 45.6554 25.4268 45.755 25.2275C45.8657 25.0173 45.9819 24.7516 46.1036 24.4307C46.2364 24.1097 46.3582 23.7279 46.4689 23.2852C46.5906 22.8424 46.6625 22.3499 46.6847 21.8076C46.1645 21.5088 45.9044 20.9775 45.9044 20.2139C45.9044 20.0036 45.9431 19.8265 46.0206 19.6826C46.1092 19.5387 46.2364 19.4668 46.4024 19.4668C46.6459 19.4668 46.8175 19.6107 46.9171 19.8984C47.0278 20.1751 47.0942 20.5514 47.1163 21.0273C47.1938 21.0495 47.2657 21.0661 47.3321 21.0771C47.4096 21.0882 47.4981 21.0938 47.5978 21.0938C47.8855 21.0938 48.1511 21.0771 48.3946 21.0439C48.6492 21.0107 48.8927 20.9941 49.1251 20.9941ZM46.5851 20.5957C46.5851 20.64 46.6072 20.6842 46.6515 20.7285C46.6404 20.6732 46.6293 20.6178 46.6183 20.5625C46.6183 20.5072 46.6127 20.4629 46.6017 20.4297C46.5906 20.3854 46.5851 20.3467 46.5851 20.3135C46.5519 20.3135 46.5242 20.3301 46.5021 20.3633C46.4799 20.3965 46.5076 20.474 46.5851 20.5957ZM58.3856 19.7988C58.5295 19.832 58.6014 19.9261 58.6014 20.0811C58.6014 20.1253 58.5848 20.1862 58.5516 20.2637C58.5295 20.3301 58.4963 20.402 58.452 20.4795C58.4188 20.5459 58.3801 20.6068 58.3358 20.6621C58.2915 20.7064 58.2528 20.7285 58.2196 20.7285C58.1642 20.7285 58.0978 20.7119 58.0204 20.6787C57.9429 20.6344 57.8322 20.5902 57.6883 20.5459C57.5444 20.4906 57.3563 20.4463 57.1239 20.4131C56.8914 20.3688 56.5871 20.3467 56.2108 20.3467C55.6795 20.3467 55.2368 20.4463 54.8827 20.6455C54.5285 20.8447 54.3514 21.1214 54.3514 21.4756C54.3514 21.7301 54.4565 21.946 54.6668 22.123C54.8882 22.2891 55.1427 22.4219 55.4305 22.5215C55.7293 22.6211 56.0282 22.693 56.327 22.7373C56.6369 22.7816 56.8748 22.8037 57.0409 22.8037C57.1626 22.8037 57.2401 22.8258 57.2733 22.8701C57.3176 22.9033 57.3397 22.9365 57.3397 22.9697C57.3397 23.0583 57.301 23.1136 57.2235 23.1357C57.1571 23.1468 57.0685 23.1689 56.9579 23.2021C56.6701 23.3018 56.3768 23.429 56.078 23.584C55.7791 23.7279 55.5024 23.9049 55.2479 24.1152C55.0044 24.3145 54.8052 24.5413 54.6502 24.7959C54.4953 25.0505 54.4178 25.3271 54.4178 25.626C54.4178 26.124 54.617 26.5391 55.0155 26.8711C55.425 27.1921 55.995 27.3525 56.7254 27.3525C57.5555 27.3525 58.2472 27.2308 58.8006 26.9873C59.354 26.7327 59.8078 26.4395 60.162 26.1074C60.5272 25.7754 60.8094 25.4434 61.0086 25.1113C61.2079 24.7682 61.3573 24.5081 61.4569 24.3311L61.5565 24.3975C61.3683 24.9398 61.1248 25.4434 60.826 25.9082C60.5383 26.373 60.1841 26.777 59.7635 27.1201C59.354 27.4521 58.8726 27.7178 58.3192 27.917C57.7658 28.1051 57.1349 28.1992 56.4266 28.1992C55.995 28.1992 55.5965 28.1439 55.2313 28.0332C54.8661 27.9336 54.5506 27.7897 54.285 27.6016C54.0194 27.4134 53.8146 27.181 53.6707 26.9043C53.5269 26.6276 53.4549 26.3122 53.4549 25.958C53.4549 25.5485 53.549 25.1943 53.7371 24.8955C53.9253 24.5967 54.1411 24.3532 54.3846 24.165C54.6281 23.9658 54.8661 23.8164 55.0985 23.7168C55.342 23.6061 55.5135 23.5286 55.6131 23.4844C55.27 23.429 54.9657 23.335 54.7 23.2021C54.4787 23.0804 54.2739 22.9144 54.0858 22.7041C53.8976 22.4827 53.8036 22.1839 53.8036 21.8076C53.8036 21.4645 53.8866 21.1546 54.0526 20.8779C54.2186 20.5902 54.4399 20.3522 54.7166 20.1641C55.0044 19.9759 55.3309 19.832 55.6961 19.7324C56.0724 19.6217 56.4709 19.5664 56.8914 19.5664C57.1349 19.5664 57.3784 19.583 57.6219 19.6162C57.8765 19.6494 58.131 19.7103 58.3856 19.7988ZM60.3248 25.9912C60.7011 25.3936 61.0387 24.7848 61.3375 24.165C61.6363 23.5342 61.8853 22.9199 62.0845 22.3223C61.8189 21.946 61.592 21.5641 61.4039 21.1768C61.2268 20.7783 61.1383 20.3688 61.1383 19.9482C61.1383 19.5387 61.177 19.168 61.2545 18.8359C61.3319 18.5039 61.4371 18.2217 61.5699 17.9893C61.7027 17.7568 61.8521 17.5798 62.0181 17.458C62.1842 17.3252 62.3557 17.2588 62.5328 17.2588C62.7763 17.2588 62.97 17.3805 63.1138 17.624C63.2688 17.8675 63.3352 18.1774 63.3131 18.5537C63.2909 18.9964 63.2301 19.4723 63.1304 19.9814C63.0419 20.4906 62.9091 21.0107 62.732 21.542C62.9534 21.7965 63.1803 22.0511 63.4127 22.3057C63.6562 22.5492 63.872 22.8037 64.0601 23.0693C64.2594 23.335 64.4198 23.6227 64.5416 23.9326C64.6744 24.2314 64.7408 24.5579 64.7408 24.9121C64.7408 25.2109 64.6965 25.5319 64.608 25.875C64.5194 26.2181 64.4032 26.5059 64.2594 26.7383C64.9123 26.0521 65.4768 25.3437 65.9527 24.6133C66.4286 23.8717 66.7828 23.1745 67.0152 22.5215C66.7496 22.1673 66.5227 21.7965 66.3345 21.4092C66.1575 21.0218 66.0689 20.6234 66.0689 20.2139C66.0689 19.8376 66.1077 19.4945 66.1851 19.1846C66.2626 18.8636 66.3678 18.5924 66.5006 18.3711C66.6334 18.1387 66.7828 17.9616 66.9488 17.8398C67.1148 17.7181 67.2864 17.6572 67.4635 17.6572C67.7069 17.6572 67.9006 17.7734 68.0445 18.0059C68.1995 18.2383 68.2659 18.5426 68.2437 18.9189C68.2216 19.2952 68.1663 19.7269 68.0777 20.2139C67.9892 20.6898 67.8508 21.1989 67.6627 21.7412C67.8951 21.9847 68.1275 22.2227 68.3599 22.4551C68.6034 22.6875 68.8192 22.931 69.0074 23.1855C69.2066 23.4401 69.3671 23.7113 69.4888 23.999C69.6106 24.2757 69.6715 24.5801 69.6715 24.9121C69.6715 25.377 69.5829 25.8086 69.4058 26.207C69.2288 26.5944 69.0129 26.932 68.7584 27.2197C68.5149 27.5075 68.2548 27.7344 67.9781 27.9004C67.7125 28.0553 67.4856 28.1328 67.2974 28.1328C66.9543 28.1328 66.6887 28.0553 66.5006 27.9004C66.3235 27.7454 66.2349 27.5739 66.2349 27.3857C66.2349 27.2308 66.2626 27.0703 66.3179 26.9043C66.3733 26.7383 66.4342 26.5889 66.5006 26.4561C66.578 26.3232 66.65 26.2126 66.7164 26.124C66.7939 26.0355 66.8492 25.9912 66.8824 25.9912C66.9377 25.9912 66.9709 26.0133 66.982 26.0576C67.0041 26.0908 67.0152 26.124 67.0152 26.1572C67.0152 26.2126 67.0097 26.29 66.9986 26.3896C66.9875 26.4893 66.982 26.5723 66.982 26.6387C66.982 26.8268 67.0429 26.9818 67.1646 27.1035C67.2864 27.2253 67.4745 27.2861 67.7291 27.2861C67.8508 27.2861 67.9892 27.2585 68.1441 27.2031C68.2991 27.1478 68.4485 27.0592 68.5924 26.9375C68.7362 26.8158 68.8525 26.6663 68.941 26.4893C69.0406 26.3011 69.0904 26.0798 69.0904 25.8252C69.0904 25.5928 69.0351 25.3604 68.9244 25.1279C68.8137 24.8844 68.6698 24.641 68.4928 24.3975C68.3157 24.1429 68.1164 23.8883 67.8951 23.6338C67.6848 23.3682 67.4745 23.1025 67.2642 22.8369C67.1646 23.0693 67.0152 23.3626 66.816 23.7168C66.6168 24.071 66.3844 24.4528 66.1187 24.8623C65.8642 25.2607 65.5764 25.6647 65.2554 26.0742C64.9456 26.4727 64.6246 26.8379 64.2926 27.1699C63.9605 27.4909 63.623 27.7565 63.2799 27.9668C62.9368 28.166 62.6103 28.2656 62.3004 28.2656C61.9573 28.2656 61.6916 28.1771 61.5035 28C61.3264 27.8229 61.2379 27.6292 61.2379 27.4189C61.2379 27.2529 61.2655 27.0869 61.3209 26.9209C61.3762 26.7549 61.4371 26.6055 61.5035 26.4727C61.581 26.3288 61.6529 26.2126 61.7193 26.124C61.7968 26.0355 61.8521 25.9912 61.8853 25.9912C61.9407 25.9912 61.9739 26.0133 61.9849 26.0576C62.0071 26.0908 62.0181 26.124 62.0181 26.1572C62.0181 26.2126 62.0126 26.29 62.0015 26.3896C61.9905 26.4893 61.9849 26.5723 61.9849 26.6387C61.9849 26.8268 62.0458 26.9818 62.1676 27.1035C62.3004 27.2253 62.5107 27.2861 62.7984 27.2861C62.9202 27.2861 63.0585 27.2585 63.2135 27.2031C63.3684 27.1478 63.5178 27.0592 63.6617 26.9375C63.8056 26.8158 63.9218 26.6663 64.0103 26.4893C64.1099 26.3011 64.1597 26.0798 64.1597 25.8252C64.1597 25.5928 64.1044 25.3493 63.9937 25.0947C63.8831 24.8402 63.7392 24.5801 63.5621 24.3145C63.385 24.0488 63.1858 23.7777 62.9644 23.501C62.7541 23.2243 62.5439 22.9421 62.3336 22.6543C62.079 23.2852 61.7968 23.8994 61.4869 24.4971C61.1881 25.0837 60.8671 25.626 60.524 26.124L60.3248 25.9912ZM61.5865 19.085C61.5865 19.5055 61.664 19.8818 61.8189 20.2139C61.9739 20.5348 62.1786 20.8503 62.4332 21.1602C62.5217 20.8171 62.5826 20.4906 62.6158 20.1807C62.649 19.8597 62.6656 19.5553 62.6656 19.2676C62.6656 18.4928 62.4941 18.1055 62.151 18.1055C62.0513 18.1055 61.9296 18.1829 61.7857 18.3379C61.6529 18.4818 61.5865 18.7308 61.5865 19.085ZM66.5172 19.4336C66.5172 19.821 66.5946 20.1751 66.7496 20.4961C66.9156 20.8171 67.1204 21.1214 67.3638 21.4092C67.4524 21.0661 67.5133 20.7451 67.5465 20.4463C67.5797 20.1475 67.5963 19.8763 67.5963 19.6328C67.5963 18.8913 67.4247 18.5205 67.0816 18.5205C66.982 18.5205 66.8603 18.5924 66.7164 18.7363C66.5836 18.8802 66.5172 19.1126 66.5172 19.4336Z" fill="black"/>
</svg>
