<svg width="69" height="29" viewBox="0 0 69 29" fill="none" xmlns="http://www.w3.org/2000/svg">
<path d="M20.6469 26.3857C20.5805 26.5186 20.4311 26.7233 20.1987 27C19.9662 27.2656 19.6785 27.5312 19.3354 27.7969C19.0033 28.0736 18.616 28.3115 18.1733 28.5107C17.7416 28.71 17.2823 28.8096 16.7953 28.8096C16.1755 28.8096 15.5834 28.6325 15.019 28.2783C14.4656 27.9242 13.9343 27.487 13.4252 26.9668C12.9272 26.4466 12.4513 25.8877 11.9975 25.29C11.5548 24.6924 11.1287 24.1501 10.7192 23.6631C10.5421 23.6963 10.365 23.7184 10.1879 23.7295C10.0108 23.7295 9.83375 23.7295 9.65667 23.7295C9.3357 23.7295 9.04241 23.7129 8.77678 23.6797C8.51116 23.6354 8.28427 23.5635 8.09612 23.4639C8.04078 24.0947 7.98544 24.7256 7.9301 25.3564C7.88583 25.9873 7.83049 26.6237 7.76409 27.2656C7.76409 27.4206 7.69768 27.5312 7.56487 27.5977C7.44312 27.6751 7.30478 27.7139 7.14983 27.7139C7.02809 27.7139 6.91741 27.6917 6.8178 27.6475C6.71819 27.6032 6.66838 27.5479 6.66838 27.4814C6.66838 27.404 6.72372 27.321 6.8344 27.2324C7.07789 23.4694 7.26604 19.6898 7.39885 15.8936C7.54273 12.0973 7.67555 8.2513 7.79729 4.35547C6.81226 4.67643 5.87704 5.0804 4.99163 5.56738C4.11728 6.04329 3.34807 6.59668 2.68401 7.22754C2.03101 7.84733 1.51083 8.52799 1.12346 9.26953C0.736093 10.0111 0.542408 10.7969 0.542408 11.627C0.542408 11.9036 0.570077 12.1582 0.625416 12.3906C0.691822 12.623 0.769296 12.8333 0.857838 13.0215C0.946379 13.1986 1.03492 13.3535 1.12346 13.4863C1.22307 13.6081 1.30608 13.7021 1.37249 13.7686L1.15667 13.918C1.10133 13.8516 1.02385 13.752 0.924244 13.6191C0.824635 13.4753 0.725025 13.2982 0.625416 13.0879C0.536874 12.8776 0.453866 12.6341 0.376392 12.3574C0.309986 12.0807 0.276783 11.7708 0.276783 11.4277C0.276783 10.4538 0.481536 9.54622 0.891041 8.70508C1.31161 7.85286 1.87053 7.08366 2.5678 6.39746C3.26506 5.71126 4.06747 5.10807 4.97503 4.58789C5.89364 4.05664 6.84547 3.61393 7.83049 3.25977C7.85263 2.88346 7.86923 2.50716 7.8803 2.13086C7.89137 1.75456 7.90797 1.37272 7.9301 0.985352C7.9301 0.885742 8.00204 0.813802 8.14592 0.769531C8.2898 0.714193 8.43368 0.686523 8.57756 0.686523C8.69931 0.686523 8.80445 0.703125 8.89299 0.736328C8.9926 0.769531 9.04241 0.819336 9.04241 0.885742C9.04241 0.930013 9.02027 0.974284 8.976 1.01855C8.95387 1.33952 8.93726 1.66048 8.9262 1.98145C8.91513 2.30241 8.89853 2.61784 8.87639 2.92773C10.2931 2.54036 11.6323 2.34668 12.894 2.34668C14.0339 2.34668 15.113 2.50163 16.1313 2.81152C17.1606 3.12142 18.0626 3.6084 18.8373 4.27246C19.6121 4.92546 20.2263 5.7666 20.6801 6.7959C21.1339 7.81413 21.3608 9.04264 21.3608 10.4814C21.3608 11.3558 21.2446 12.2578 21.0121 13.1875C20.7797 14.1061 20.4532 15.0081 20.0326 15.8936C19.6121 16.779 19.1085 17.6312 18.5219 18.4502C17.9353 19.2692 17.2823 20.0163 16.5629 20.6914C15.8435 21.3555 15.0743 21.9365 14.2553 22.4346C13.4363 22.9215 12.5841 23.2757 11.6987 23.4971C12.1303 23.9287 12.5509 24.3991 12.9604 24.9082C13.3809 25.4062 13.8126 25.8711 14.2553 26.3027C14.698 26.7233 15.1684 27.0719 15.6664 27.3486C16.1755 27.6364 16.7345 27.7803 17.3432 27.7803C17.6752 27.7803 18.0073 27.736 18.3393 27.6475C18.6824 27.5589 18.9978 27.4427 19.2856 27.2988C19.5733 27.166 19.8279 27.0111 20.0492 26.834C20.2817 26.6569 20.4477 26.4854 20.5473 26.3193L20.6469 26.3857ZM8.84319 4.08984C8.74358 7.03385 8.66057 9.97786 8.59417 12.9219C8.53883 15.8659 8.40601 18.8708 8.19573 21.9365C8.25107 21.9144 8.31194 21.8978 8.37835 21.8867C8.44475 21.8757 8.52223 21.8701 8.61077 21.8701C9.11988 21.8701 9.59026 21.9808 10.0219 22.2021C10.4535 22.4124 10.8686 22.6947 11.267 23.0488C12.1414 22.8828 12.9659 22.6006 13.7407 22.2021C14.5265 21.8037 15.2514 21.3167 15.9155 20.7412C16.5795 20.1546 17.1772 19.5016 17.7084 18.7822C18.2397 18.0628 18.6934 17.2992 19.0698 16.4912C19.4461 15.6833 19.7338 14.8532 19.933 14.001C20.1323 13.1377 20.2319 12.2799 20.2319 11.4277C20.2319 10.3099 20.0935 9.27507 19.8168 8.32324C19.5401 7.36035 19.0974 6.53027 18.4887 5.83301C17.88 5.13574 17.0886 4.59342 16.1147 4.20605C15.1407 3.80762 13.9509 3.6084 12.5453 3.6084C11.3279 3.6084 10.0938 3.76888 8.84319 4.08984ZM9.65667 23.1982C9.76734 23.1982 9.87249 23.1982 9.9721 23.1982C10.0717 23.1982 10.1713 23.1872 10.2709 23.165C10.0164 22.9105 9.77288 22.7002 9.54045 22.5342C9.30803 22.3571 9.08668 22.2686 8.87639 22.2686C8.67717 22.2686 8.51669 22.3073 8.39495 22.3848C8.28427 22.4622 8.22893 22.5618 8.22893 22.6836C8.22893 22.8385 8.36728 22.9658 8.64397 23.0654C8.93173 23.154 9.2693 23.1982 9.65667 23.1982ZM26.3214 18.7988C26.4653 18.832 26.5373 18.9261 26.5373 19.0811C26.5373 19.1253 26.5207 19.1862 26.4875 19.2637C26.4653 19.3301 26.4321 19.402 26.3879 19.4795C26.3547 19.5459 26.3159 19.6068 26.2716 19.6621C26.2274 19.7064 26.1886 19.7285 26.1554 19.7285C26.1001 19.7285 26.0337 19.7119 25.9562 19.6787C25.8787 19.6344 25.7681 19.5902 25.6242 19.5459C25.4803 19.4906 25.2922 19.4463 25.0597 19.4131C24.8273 19.3688 24.5229 19.3467 24.1466 19.3467C23.6154 19.3467 23.1727 19.4463 22.8185 19.6455C22.4644 19.8447 22.2873 20.1214 22.2873 20.4756C22.2873 20.7301 22.3924 20.946 22.6027 21.123C22.8241 21.2891 23.0786 21.4219 23.3664 21.5215C23.6652 21.6211 23.964 21.693 24.2629 21.7373C24.5727 21.7816 24.8107 21.8037 24.9767 21.8037C25.0985 21.8037 25.1759 21.8258 25.2091 21.8701C25.2534 21.9033 25.2755 21.9365 25.2755 21.9697C25.2755 22.0583 25.2368 22.1136 25.1593 22.1357C25.0929 22.1468 25.0044 22.1689 24.8937 22.2021C24.606 22.3018 24.3127 22.429 24.0138 22.584C23.715 22.7279 23.4383 22.9049 23.1838 23.1152C22.9403 23.3145 22.741 23.5413 22.5861 23.7959C22.4311 24.0505 22.3537 24.3271 22.3537 24.626C22.3537 25.124 22.5529 25.5391 22.9513 25.8711C23.3608 26.1921 23.9308 26.3525 24.6613 26.3525C25.4914 26.3525 26.1831 26.2308 26.7365 25.9873C27.2899 25.7327 27.7436 25.4395 28.0978 25.1074C28.463 24.7754 28.7453 24.4434 28.9445 24.1113C29.1437 23.7682 29.2931 23.5081 29.3927 23.3311L29.4923 23.3975C29.3042 23.9398 29.0607 24.4434 28.7619 24.9082C28.4741 25.373 28.1199 25.777 27.6994 26.1201C27.2899 26.4521 26.8084 26.7178 26.255 26.917C25.7017 27.1051 25.0708 27.1992 24.3625 27.1992C23.9308 27.1992 23.5324 27.1439 23.1672 27.0332C22.8019 26.9336 22.4865 26.7897 22.2209 26.6016C21.9552 26.4134 21.7505 26.181 21.6066 25.9043C21.4627 25.6276 21.3908 25.3122 21.3908 24.958C21.3908 24.5485 21.4849 24.1943 21.673 23.8955C21.8612 23.5967 22.077 23.3532 22.3205 23.165C22.564 22.9658 22.8019 22.8164 23.0343 22.7168C23.2778 22.6061 23.4494 22.5286 23.549 22.4844C23.2059 22.429 22.9015 22.335 22.6359 22.2021C22.4145 22.0804 22.2098 21.9144 22.0216 21.7041C21.8335 21.4827 21.7394 21.1839 21.7394 20.8076C21.7394 20.4645 21.8224 20.1546 21.9884 19.8779C22.1545 19.5902 22.3758 19.3522 22.6525 19.1641C22.9403 18.9759 23.2668 18.832 23.632 18.7324C24.0083 18.6217 24.4067 18.5664 24.8273 18.5664C25.0708 18.5664 25.3143 18.583 25.5578 18.6162C25.8123 18.6494 26.0669 18.7103 26.3214 18.7988ZM35.0175 23.3975C34.9953 23.4749 34.9068 23.6852 34.7519 24.0283C34.608 24.3604 34.4032 24.7201 34.1376 25.1074C33.883 25.4837 33.5731 25.8268 33.2079 26.1367C32.8537 26.4355 32.4498 26.585 31.996 26.585C31.4094 26.585 30.8782 26.3636 30.4022 25.9209C29.9263 25.4671 29.5168 24.8307 29.1737 24.0117C28.8417 23.1816 28.5816 22.18 28.3935 21.0068C28.2164 19.8337 28.1278 18.5221 28.1278 17.0723C28.1278 16.2754 28.1555 15.4398 28.2108 14.5654C28.2662 13.68 28.3547 12.8112 28.4765 11.959C28.5982 11.1068 28.7476 10.2933 28.9247 9.51855C29.1129 8.74382 29.3342 8.06315 29.5888 7.47656C29.8433 6.88997 30.1366 6.42513 30.4687 6.08203C30.8117 5.72786 31.1881 5.55078 31.5976 5.55078C32.2063 5.55078 32.649 5.92155 32.9257 6.66309C33.2134 7.40462 33.3573 8.55013 33.3573 10.0996C33.3573 11.0072 33.2909 12.0254 33.1581 13.1543C33.0253 14.2721 32.7984 15.4176 32.4774 16.5908C32.0569 18.0739 31.6142 19.3411 31.1493 20.3926C30.6955 21.4329 30.3082 22.263 29.9872 22.8828C30.109 23.3145 30.2418 23.7074 30.3856 24.0615C30.5406 24.4157 30.7121 24.7256 30.9003 24.9912C31.0884 25.2458 31.2932 25.445 31.5145 25.5889C31.7359 25.7327 31.9794 25.8047 32.245 25.8047C32.577 25.8047 32.8869 25.7051 33.1747 25.5059C33.4625 25.3066 33.717 25.0742 33.9384 24.8086C34.1708 24.543 34.37 24.2718 34.536 23.9951C34.702 23.7184 34.8293 23.4971 34.9179 23.3311L35.0175 23.3975ZM29.1405 15.9102C29.1405 16.375 29.1516 16.8786 29.1737 17.4209C29.2069 17.9521 29.2512 18.4945 29.3065 19.0479C29.3619 19.6012 29.4283 20.1546 29.5058 20.708C29.5943 21.2614 29.6994 21.7926 29.8212 22.3018C30.0536 21.8148 30.3248 21.1895 30.6347 20.4258C30.9556 19.6621 31.26 18.8044 31.5478 17.8525C31.8466 16.8896 32.0956 15.8493 32.2948 14.7314C32.5051 13.6136 32.6103 12.457 32.6103 11.2617C32.6103 10.5091 32.577 9.82292 32.5106 9.20312C32.4553 8.57227 32.3668 8.03548 32.245 7.59277C32.1233 7.139 31.9683 6.79036 31.7802 6.54688C31.6031 6.29232 31.3928 6.16504 31.1493 6.16504C30.9169 6.16504 30.7066 6.33105 30.5185 6.66309C30.3303 6.98405 30.1588 7.41016 30.0038 7.94141C29.8599 8.47266 29.7326 9.08138 29.622 9.76758C29.5113 10.4538 29.4172 11.1566 29.3397 11.876C29.2733 12.5954 29.2235 13.3092 29.1903 14.0176C29.1571 14.7148 29.1405 15.3457 29.1405 15.9102ZM35.0309 20.0938C35.1194 20.0938 35.2024 20.1214 35.2799 20.1768C35.3685 20.221 35.4404 20.2708 35.4957 20.3262C35.5621 20.3815 35.6119 20.4424 35.6451 20.5088C35.6894 20.5641 35.7116 20.5973 35.7116 20.6084C35.7116 20.6195 35.695 20.6803 35.6618 20.791C35.6396 20.8906 35.6064 21.0622 35.5621 21.3057C35.5289 21.5492 35.4957 21.8701 35.4625 22.2686C35.4404 22.6559 35.4293 23.1429 35.4293 23.7295C35.4293 24.5153 35.5234 25.0632 35.7116 25.373C35.9108 25.6829 36.1487 25.8379 36.4254 25.8379C36.7021 25.8379 36.9733 25.7549 37.2389 25.5889C37.5156 25.4229 37.7757 25.207 38.0192 24.9414C38.2627 24.6758 38.4896 24.377 38.6998 24.0449C38.9212 23.7018 39.1149 23.3587 39.2809 23.0156L39.3805 23.082C39.3362 23.1927 39.2698 23.3643 39.1813 23.5967C39.0927 23.818 38.9821 24.0615 38.8493 24.3271C38.7164 24.5928 38.556 24.8695 38.3678 25.1572C38.1907 25.4339 37.9804 25.6885 37.7369 25.9209C37.5045 26.1423 37.2444 26.3304 36.9567 26.4854C36.68 26.6292 36.3756 26.7012 36.0436 26.7012C35.8112 26.7012 35.5953 26.6569 35.3961 26.5684C35.208 26.4798 35.0364 26.3193 34.8815 26.0869C34.7376 25.8434 34.6214 25.5114 34.5328 25.0908C34.4554 24.6702 34.4166 24.1279 34.4166 23.4639C34.4166 23.1208 34.4277 22.7555 34.4498 22.3682C34.483 21.9697 34.5218 21.6045 34.566 21.2725C34.6214 20.9294 34.6878 20.6471 34.7653 20.4258C34.8427 20.2044 34.9313 20.0938 35.0309 20.0938ZM35.4293 15.9766C35.706 15.9766 35.9052 16.0762 36.027 16.2754C36.1487 16.4635 36.2096 16.696 36.2096 16.9727C36.2096 17.2936 36.1211 17.5426 35.944 17.7197C35.7669 17.8968 35.5511 17.9854 35.2965 17.9854C35.1084 17.9854 34.9257 17.9134 34.7487 17.7695C34.5716 17.6257 34.483 17.3932 34.483 17.0723C34.483 16.7181 34.5716 16.4469 34.7487 16.2588C34.9257 16.0706 35.1526 15.9766 35.4293 15.9766ZM44.2416 21.2559C44.142 21.2559 44.0479 21.2005 43.9593 21.0898C43.8819 20.9681 43.7767 20.8408 43.6439 20.708C43.5111 20.5752 43.3396 20.4535 43.1293 20.3428C42.93 20.221 42.6644 20.1602 42.3324 20.1602C41.8675 20.1602 41.4359 20.2819 41.0375 20.5254C40.639 20.7578 40.2959 21.0566 40.0082 21.4219C39.7204 21.776 39.4935 22.1689 39.3275 22.6006C39.1726 23.0212 39.0951 23.4196 39.0951 23.7959C39.0951 24.3825 39.2445 24.8639 39.5433 25.2402C39.8422 25.6165 40.2406 25.8047 40.7386 25.8047C41.126 25.8047 41.4636 25.7327 41.7513 25.5889C42.0502 25.4339 42.2992 25.2347 42.4984 24.9912C42.432 24.6924 42.3988 24.3216 42.3988 23.8789C42.3988 23.403 42.432 23.0156 42.4984 22.7168C42.5759 22.418 42.6644 22.1855 42.764 22.0195C42.8747 21.8535 42.9854 21.7428 43.0961 21.6875C43.2067 21.6211 43.3008 21.5879 43.3783 21.5879C43.4668 21.5879 43.5664 21.6488 43.6771 21.7705C43.7989 21.8923 43.8597 22.1081 43.8597 22.418C43.8597 22.8053 43.7878 23.2148 43.6439 23.6465C43.5111 24.0671 43.323 24.471 43.0795 24.8584C43.2123 25.2015 43.417 25.4505 43.6937 25.6055C43.9704 25.7604 44.2858 25.8379 44.64 25.8379C44.9499 25.8379 45.2377 25.7715 45.5033 25.6387C45.78 25.4948 46.0345 25.3066 46.267 25.0742C46.5105 24.8418 46.7373 24.5762 46.9476 24.2773C47.1579 23.9674 47.3516 23.652 47.5287 23.3311L47.6283 23.3975C47.4955 23.818 47.3184 24.2275 47.097 24.626C46.8757 25.0244 46.6211 25.3786 46.3334 25.6885C46.0456 25.9984 45.7302 26.2474 45.3871 26.4355C45.055 26.6126 44.7064 26.7012 44.3412 26.7012C44.0645 26.7012 43.7601 26.6126 43.4281 26.4355C43.1071 26.2474 42.8415 25.9154 42.6312 25.4395C42.2881 25.849 41.8952 26.1921 41.4525 26.4688C41.0098 26.7344 40.5339 26.8672 40.0248 26.8672C39.737 26.8672 39.4769 26.8008 39.2445 26.668C39.0121 26.5352 38.8129 26.3581 38.6468 26.1367C38.4919 25.9154 38.3702 25.6553 38.2816 25.3564C38.1931 25.0576 38.1488 24.7422 38.1488 24.4102C38.1488 23.8457 38.2705 23.2812 38.514 22.7168C38.7686 22.1523 39.1006 21.6432 39.5101 21.1895C39.9307 20.7357 40.4066 20.3704 40.9379 20.0938C41.4802 19.806 42.0446 19.6621 42.6312 19.6621C43.0629 19.6621 43.4226 19.7119 43.7103 19.8115C44.0092 19.9001 44.2471 20.0107 44.4242 20.1436C44.6013 20.2653 44.7286 20.3926 44.806 20.5254C44.8835 20.6582 44.9222 20.7633 44.9222 20.8408C44.9222 20.9958 44.8392 21.1064 44.6732 21.1729C44.5183 21.2282 44.3744 21.2559 44.2416 21.2559ZM42.847 23.4639C42.847 23.8291 42.8802 24.1445 42.9467 24.4102C43.1127 24.1003 43.2344 23.7848 43.3119 23.4639C43.3894 23.1318 43.4281 22.8496 43.4281 22.6172C43.4281 22.3405 43.3783 22.2021 43.2787 22.2021C43.1791 22.2021 43.0795 22.3239 42.9799 22.5674C42.8913 22.8109 42.847 23.1097 42.847 23.4639ZM49.5343 26.8672C49.158 26.8672 48.8204 26.834 48.5216 26.7676C48.2338 26.6901 47.9848 26.5628 47.7745 26.3857C47.5753 26.1976 47.4204 25.9486 47.3097 25.6387C47.2101 25.3288 47.1603 24.9414 47.1603 24.4766C47.1603 24.1888 47.1769 23.724 47.2101 23.082C47.2433 22.429 47.282 21.6045 47.3263 20.6084C47.3705 19.6123 47.4093 18.4502 47.4425 17.1221C47.4757 15.7939 47.4923 14.3053 47.4923 12.6562C47.4923 11.8483 47.4868 11.0736 47.4757 10.332C47.4757 9.57943 47.4702 8.91536 47.4591 8.33984C47.448 7.75326 47.437 7.28288 47.4259 6.92871C47.4259 6.56348 47.4259 6.36426 47.4259 6.33105C47.4259 6.24251 47.437 6.16504 47.4591 6.09863C47.4923 6.03223 47.5532 5.97135 47.6417 5.91602C47.7081 5.88281 47.7856 5.83854 47.8741 5.7832C47.9737 5.7168 48.0733 5.68359 48.173 5.68359C48.2947 5.68359 48.3888 5.7168 48.4552 5.7832C48.5216 5.83854 48.5714 5.94368 48.6046 6.09863C48.6489 6.24251 48.6821 6.49707 48.7042 6.8623C48.7263 7.21647 48.7374 7.71452 48.7374 8.35645C48.7485 8.9873 48.754 9.80632 48.754 10.8135C48.754 11.7432 48.7319 12.7061 48.6876 13.7021C48.6433 14.6982 48.588 15.6777 48.5216 16.6406C48.4662 17.6035 48.3998 18.5277 48.3224 19.4131C48.256 20.2985 48.1896 21.0954 48.1231 21.8037C48.0678 22.512 48.018 23.1042 47.9737 23.5801C47.9295 24.0449 47.9073 24.3438 47.9073 24.4766C47.9073 24.7533 47.9627 25.0078 48.0733 25.2402C48.184 25.4616 48.3279 25.6553 48.505 25.8213C48.6931 25.9873 48.9034 26.1201 49.1358 26.2197C49.3683 26.3083 49.6062 26.3525 49.8497 26.3525C50.3146 26.3525 50.7407 26.2363 51.128 26.0039C51.5265 25.7604 51.8696 25.4616 52.1573 25.1074C52.4451 24.7422 52.6664 24.3493 52.8214 23.9287C52.9874 23.4971 53.0704 23.0931 53.0704 22.7168C53.0704 22.1302 52.921 21.6488 52.6222 21.2725C52.3344 20.8962 51.9415 20.708 51.4435 20.708C50.9565 20.708 50.5414 20.8242 50.1983 21.0566C49.8663 21.2891 49.5896 21.5713 49.3683 21.9033C49.158 22.2354 49.003 22.584 48.9034 22.9492C48.8038 23.3145 48.754 23.6354 48.754 23.9121C48.754 24.0117 48.754 24.0892 48.754 24.1445C48.7651 24.1888 48.7872 24.2773 48.8204 24.4102C48.8536 24.554 48.8481 24.6536 48.8038 24.709C48.7595 24.7643 48.6987 24.7809 48.6212 24.7588C48.5548 24.7367 48.4884 24.6702 48.422 24.5596C48.3556 24.4489 48.3224 24.2995 48.3224 24.1113C48.3224 23.6465 48.422 23.154 48.6212 22.6338C48.8204 22.1136 49.0916 21.6377 49.4347 21.2061C49.7778 20.7633 50.1817 20.3981 50.6466 20.1104C51.1225 19.8115 51.6261 19.6621 52.1573 19.6621C52.4451 19.6621 52.7052 19.7285 52.9376 19.8613C53.17 19.9831 53.3637 20.1602 53.5187 20.3926C53.6847 20.6139 53.812 20.874 53.9005 21.1729C53.989 21.4606 54.0333 21.7705 54.0333 22.1025C54.0333 22.667 53.906 23.2314 53.6515 23.7959C53.408 24.3604 53.0759 24.8695 52.6554 25.3232C52.2459 25.777 51.77 26.1478 51.2276 26.4355C50.6853 26.7233 50.1209 26.8672 49.5343 26.8672ZM61.6004 23.3975C61.5783 23.4749 61.4898 23.6852 61.3348 24.0283C61.1909 24.3604 60.9862 24.7201 60.7205 25.1074C60.466 25.4837 60.1561 25.8268 59.7909 26.1367C59.4367 26.4355 59.0327 26.585 58.5789 26.585C57.9924 26.585 57.4611 26.3636 56.9852 25.9209C56.5093 25.4671 56.0998 24.8307 55.7567 24.0117C55.4246 23.1816 55.1646 22.18 54.9764 21.0068C54.7993 19.8337 54.7108 18.5221 54.7108 17.0723C54.7108 16.2754 54.7385 15.4398 54.7938 14.5654C54.8491 13.68 54.9377 12.8112 55.0594 11.959C55.1812 11.1068 55.3306 10.2933 55.5077 9.51855C55.6958 8.74382 55.9172 8.06315 56.1717 7.47656C56.4263 6.88997 56.7196 6.42513 57.0516 6.08203C57.3947 5.72786 57.771 5.55078 58.1805 5.55078C58.7892 5.55078 59.2319 5.92155 59.5086 6.66309C59.7964 7.40462 59.9403 8.55013 59.9403 10.0996C59.9403 11.0072 59.8739 12.0254 59.7411 13.1543C59.6082 14.2721 59.3814 15.4176 59.0604 16.5908C58.6398 18.0739 58.1971 19.3411 57.7323 20.3926C57.2785 21.4329 56.8911 22.263 56.5702 22.8828C56.6919 23.3145 56.8247 23.7074 56.9686 24.0615C57.1235 24.4157 57.2951 24.7256 57.4832 24.9912C57.6714 25.2458 57.8761 25.445 58.0975 25.5889C58.3189 25.7327 58.5623 25.8047 58.828 25.8047C59.16 25.8047 59.4699 25.7051 59.7577 25.5059C60.0454 25.3066 60.3 25.0742 60.5213 24.8086C60.7537 24.543 60.953 24.2718 61.119 23.9951C61.285 23.7184 61.4123 23.4971 61.5008 23.3311L61.6004 23.3975ZM55.7235 15.9102C55.7235 16.375 55.7345 16.8786 55.7567 17.4209C55.7899 17.9521 55.8342 18.4945 55.8895 19.0479C55.9448 19.6012 56.0112 20.1546 56.0887 20.708C56.1773 21.2614 56.2824 21.7926 56.4041 22.3018C56.6366 21.8148 56.9077 21.1895 57.2176 20.4258C57.5386 19.6621 57.8429 18.8044 58.1307 17.8525C58.4295 16.8896 58.6786 15.8493 58.8778 14.7314C59.0881 13.6136 59.1932 12.457 59.1932 11.2617C59.1932 10.5091 59.16 9.82292 59.0936 9.20312C59.0383 8.57227 58.9497 8.03548 58.828 7.59277C58.7062 7.139 58.5513 6.79036 58.3631 6.54687C58.186 6.29232 57.9758 6.16504 57.7323 6.16504C57.4998 6.16504 57.2896 6.33105 57.1014 6.66309C56.9133 6.98405 56.7417 7.41016 56.5868 7.94141C56.4429 8.47266 56.3156 9.08138 56.2049 9.76758C56.0942 10.4538 56.0002 11.1566 55.9227 11.876C55.8563 12.5954 55.8065 13.3092 55.7733 14.0176C55.7401 14.7148 55.7235 15.3457 55.7235 15.9102ZM65.5816 18.7988C65.7255 18.832 65.7974 18.9261 65.7974 19.0811C65.7974 19.1253 65.7808 19.1862 65.7476 19.2637C65.7255 19.3301 65.6923 19.402 65.648 19.4795C65.6148 19.5459 65.5761 19.6068 65.5318 19.6621C65.4875 19.7064 65.4488 19.7285 65.4156 19.7285C65.3603 19.7285 65.2939 19.7119 65.2164 19.6787C65.1389 19.6344 65.0282 19.5902 64.8844 19.5459C64.7405 19.4906 64.5523 19.4463 64.3199 19.4131C64.0875 19.3688 63.7831 19.3467 63.4068 19.3467C62.8756 19.3467 62.4329 19.4463 62.0787 19.6455C61.7245 19.8447 61.5474 20.1214 61.5474 20.4756C61.5474 20.7301 61.6526 20.946 61.8629 21.123C62.0842 21.2891 62.3388 21.4219 62.6265 21.5215C62.9254 21.6211 63.2242 21.693 63.523 21.7373C63.8329 21.7816 64.0709 21.8037 64.2369 21.8037C64.3586 21.8037 64.4361 21.8258 64.4693 21.8701C64.5136 21.9033 64.5357 21.9365 64.5357 21.9697C64.5357 22.0583 64.497 22.1136 64.4195 22.1357C64.3531 22.1468 64.2646 22.1689 64.1539 22.2021C63.8661 22.3018 63.5728 22.429 63.274 22.584C62.9752 22.7279 62.6985 22.9049 62.4439 23.1152C62.2004 23.3145 62.0012 23.5413 61.8463 23.7959C61.6913 24.0505 61.6138 24.3271 61.6138 24.626C61.6138 25.124 61.8131 25.5391 62.2115 25.8711C62.621 26.1921 63.191 26.3525 63.9215 26.3525C64.7515 26.3525 65.4433 26.2308 65.9967 25.9873C66.55 25.7327 67.0038 25.4395 67.358 25.1074C67.7232 24.7754 68.0054 24.4434 68.2047 24.1113C68.4039 23.7682 68.5533 23.5081 68.6529 23.3311L68.7525 23.3975C68.5644 23.9398 68.3209 24.4434 68.022 24.9082C67.7343 25.373 67.3801 25.777 66.9595 26.1201C66.55 26.4521 66.0686 26.7178 65.5152 26.917C64.9618 27.1051 64.331 27.1992 63.6226 27.1992C63.191 27.1992 62.7926 27.1439 62.4273 27.0332C62.0621 26.9336 61.7467 26.7897 61.481 26.6016C61.2154 26.4134 61.0107 26.181 60.8668 25.9043C60.7229 25.6276 60.651 25.3122 60.651 24.958C60.651 24.5485 60.745 24.1943 60.9332 23.8955C61.1213 23.5967 61.3372 23.3532 61.5806 23.165C61.8241 22.9658 62.0621 22.8164 62.2945 22.7168C62.538 22.6061 62.7095 22.5286 62.8092 22.4844C62.4661 22.429 62.1617 22.335 61.8961 22.2021C61.6747 22.0804 61.47 21.9144 61.2818 21.7041C61.0937 21.4827 60.9996 21.1839 60.9996 20.8076C60.9996 20.4645 61.0826 20.1546 61.2486 19.8779C61.4146 19.5902 61.636 19.3522 61.9127 19.1641C62.2004 18.9759 62.5269 18.832 62.8922 18.7324C63.2685 18.6217 63.6669 18.5664 64.0875 18.5664C64.331 18.5664 64.5745 18.583 64.8179 18.6162C65.0725 18.6494 65.3271 18.7103 65.5816 18.7988Z" fill="black"/>
</svg>
