<svg width="24" height="24" viewBox="0 0 24 24" fill="none" xmlns="http://www.w3.org/2000/svg">
<path d="M15.4448 5.439C16.3568 7.44975 17.4765 9.918 18.3165 10.899C18.4808 10.5173 18.4628 9.879 18.6503 8.3205C18.8198 6.91275 19.9808 6.77925 20.4788 6.879C21.5798 7.1085 21.9158 8.22525 21.879 8.637C21.8205 9.29325 21.8175 9.27075 21.6975 10.857C21.5213 13.1775 22.4175 14.9295 22.5 16.9163C22.5 20.6602 19.2188 22.5 16.9215 22.5C15.084 22.5 13.2465 21.324 12.5565 20.736L9.111 17.5897C8.6895 17.262 7.647 16.1798 7.1895 15.5573C5.94225 13.86 7.746 12.6915 8.76 12.9847C8.67975 12.9233 8.199 12.1425 7.96875 11.76C7.35 10.5173 7.96875 9.69 8.42625 9.46275C9.46275 8.9475 10.2248 9.52725 10.4648 9.84375C10.3733 9.68775 10.0853 9.05625 9.621 7.89825C9.15675 6.741 9.9045 6.0255 10.3358 5.8125C11.2733 5.379 12.1643 5.9295 12.387 6.42225C12.4958 6.66225 13.0845 7.95075 13.3395 8.51925C13.1468 8.04825 12.7973 7.11225 12.6735 6.6795C12.4275 5.6595 13.0193 4.96125 13.3943 4.78125C13.9163 4.5315 15.0038 4.46625 15.4343 5.41425L15.4448 5.439Z" fill="#FFC83D"/>
<path d="M13.3365 5.18624C13.416 4.93124 13.5248 4.77674 13.6073 4.70024C13.5293 4.72274 13.4573 4.75124 13.3943 4.78124C13.0193 4.96124 12.4275 5.66024 12.6743 6.67949C12.7973 7.11224 13.1468 8.04824 13.3403 8.51924L13.2473 8.31374C13.6703 9.28499 14.1975 10.3312 14.595 11.0062C14.6454 11.092 14.7278 11.1542 14.8241 11.1791C14.9204 11.2041 15.0226 11.1898 15.1084 11.1394C15.1941 11.0889 15.2563 11.0065 15.2813 10.9102C15.3062 10.814 15.2919 10.7117 15.2415 10.626C14.5965 9.53024 13.6155 7.44974 13.3343 6.41699C13.2197 6.01488 13.2205 5.58793 13.3365 5.18624ZM7.96875 11.76C8.14275 12.0495 8.46 12.5662 8.63925 12.8272C8.87625 13.1122 9.13575 13.386 9.39825 13.6455C9.69825 13.9425 10.0095 14.229 10.3043 14.5005L10.329 14.523C10.6335 14.8035 10.9178 15.0667 11.1645 15.3165C11.2344 15.3873 11.3296 15.4274 11.4291 15.4281C11.5286 15.4287 11.6243 15.3898 11.6951 15.3199C11.7659 15.2499 11.8061 15.1548 11.8067 15.0553C11.8073 14.9557 11.7684 14.8601 11.6985 14.7892C11.4368 14.5245 11.139 14.2492 10.8368 13.9717L10.8158 13.9522C10.5188 13.6785 10.2158 13.3995 9.92625 13.1122C9.32775 12.5197 8.81625 11.9242 8.54475 11.3235C8.352 10.899 8.30475 10.4017 8.35725 9.99074C8.37567 9.82141 8.4202 9.65595 8.48925 9.50024C8.50389 9.46896 8.52094 9.43887 8.54025 9.41024C8.50275 9.42599 8.4645 9.44399 8.4255 9.46274C7.96875 9.68999 7.35 10.5172 7.96875 11.76ZM10.4123 5.77949C10.332 5.83349 10.2225 5.96399 10.1528 6.21749C10.074 6.50324 10.0628 6.90524 10.194 7.38974C10.3845 8.09174 10.863 9.03374 11.4098 9.95624C11.8831 10.7504 12.3921 11.5226 12.9353 12.2707C12.9658 12.3104 12.9881 12.3557 13.0009 12.4041C13.0136 12.4525 13.0166 12.503 13.0095 12.5525C13.0025 12.6021 12.9856 12.6497 12.9598 12.6927C12.9341 12.7356 12.9 12.7729 12.8596 12.8024C12.8192 12.832 12.7733 12.8531 12.7246 12.8646C12.6759 12.8762 12.6253 12.8778 12.576 12.8695C12.5266 12.8612 12.4794 12.8431 12.4372 12.8162C12.3949 12.7894 12.3585 12.7544 12.33 12.7132C11.7727 11.9458 11.2504 11.1535 10.7648 10.3387C10.6148 10.0867 10.4678 9.82874 10.3283 9.57074C10.0787 9.01919 9.84284 8.46152 9.621 7.89824C9.15675 6.74099 9.9045 6.02549 10.3358 5.81324C10.3613 5.80049 10.3868 5.78999 10.4123 5.77949ZM18.507 9.70799C18.4523 10.3035 18.4208 10.644 18.3233 10.8825C18.3173 10.9575 18.312 11.025 18.306 11.0872C18.2971 11.1863 18.3278 11.2849 18.3915 11.3612C18.4552 11.4376 18.5467 11.4855 18.6458 11.4945C18.7448 11.5034 18.8434 11.4727 18.9197 11.409C18.9961 11.3452 19.044 11.2538 19.053 11.1547C19.0643 11.0325 19.0755 10.89 19.0868 10.7295C19.131 10.1347 19.1933 9.28649 19.377 8.21999C19.4535 7.77749 19.6523 7.39349 19.8795 7.14299C20.0558 6.95024 20.2073 6.87599 20.3115 6.85724C19.7588 6.81824 18.8025 7.05299 18.6503 8.31974C18.5955 8.78149 18.5477 9.24404 18.507 9.70724V9.70799Z" fill="#D67D00"/>
<path d="M18.0285 5.66774C18.0288 5.71699 18.0389 5.76568 18.0581 5.81105C18.0772 5.85641 18.1051 5.89756 18.1402 5.93214C18.1753 5.96672 18.2168 5.99405 18.2624 6.01258C18.308 6.0311 18.3569 6.04046 18.4061 6.04012C18.4554 6.03977 18.5041 6.02973 18.5494 6.01057C18.5948 5.9914 18.6359 5.96349 18.6705 5.92843C18.7051 5.89336 18.7324 5.85183 18.751 5.8062C18.7695 5.76057 18.7788 5.71174 18.7785 5.66249C18.7673 3.94124 17.4585 1.54649 14.646 1.56449C14.5465 1.56519 14.4514 1.60537 14.3816 1.67618C14.3118 1.747 14.2729 1.84266 14.2736 1.94212C14.2743 2.04157 14.3145 2.13668 14.3853 2.20651C14.4561 2.27635 14.5518 2.31519 14.6513 2.31449C16.9253 2.29949 18.0188 4.22549 18.0285 5.66774Z" fill="#5092FF"/>
<path d="M17.1578 7.4895C17.0584 7.4901 16.9629 7.45126 16.8922 7.38152C16.8215 7.31178 16.7813 7.21682 16.7805 7.1175C16.776 6.435 16.4948 5.5275 15.8978 4.79625C15.3098 4.07625 14.4225 3.53475 13.1827 3.543C13.0833 3.54369 12.9876 3.50485 12.9168 3.43502C12.846 3.36519 12.8058 3.27008 12.8051 3.17062C12.8044 3.07117 12.8433 2.97551 12.9131 2.90469C12.9829 2.83387 13.078 2.79369 13.1775 2.793C14.6685 2.78325 15.7635 3.447 16.4783 4.3215C17.1833 5.18475 17.5245 6.25875 17.5305 7.11225C17.5308 7.16149 17.5214 7.21032 17.5028 7.25593C17.4842 7.30154 17.4569 7.34304 17.4223 7.37807C17.3876 7.41311 17.3465 7.44098 17.3011 7.46009C17.2557 7.47921 17.207 7.4892 17.1578 7.4895ZM3.65625 13.2075C3.65625 13.108 3.61674 13.0127 3.54641 12.9423C3.47609 12.872 3.38071 12.8325 3.28125 12.8325C3.18179 12.8325 3.08641 12.872 3.01609 12.9423C2.94576 13.0127 2.90625 13.108 2.90625 13.2075C2.90625 14.0602 3.24 15.1365 3.93975 16.005C4.64925 16.884 5.73975 17.5545 7.23075 17.5545C7.33021 17.5545 7.42559 17.515 7.49592 17.4447C7.56624 17.3743 7.60575 17.279 7.60575 17.1795C7.60575 17.08 7.56624 16.9847 7.49592 16.9143C7.42559 16.844 7.33021 16.8045 7.23075 16.8045C5.991 16.8045 5.10675 16.257 4.52325 15.534C3.9315 14.799 3.65625 13.8885 3.65625 13.2067V13.2075Z" fill="#5092FF"/>
<path d="M2.39925 14.6482C2.39925 14.5488 2.35974 14.4534 2.28942 14.3831C2.21909 14.3127 2.12371 14.2732 2.02425 14.2732C1.92479 14.2732 1.82941 14.3127 1.75909 14.3831C1.68876 14.4534 1.64925 14.5488 1.64925 14.6482C1.64925 16.3695 2.9415 18.7732 5.754 18.7732C5.85346 18.7732 5.94884 18.7337 6.01917 18.6634C6.08949 18.5931 6.129 18.4977 6.129 18.3982C6.129 18.2988 6.08949 18.2034 6.01917 18.1331C5.94884 18.0627 5.85346 18.0232 5.754 18.0232C3.48 18.0232 2.39925 16.0912 2.39925 14.6482Z" fill="#5092FF"/>
</svg>
