<svg width="91" height="72" viewBox="0 0 91 72" fill="none" xmlns="http://www.w3.org/2000/svg">
<path d="M18.3287 52.0005C18.1461 52.0801 17.9603 52.1247 17.7714 52.1345C17.5971 52.1501 17.4365 52.1415 17.2895 52.1089C17.1527 52.0719 17.0318 52.016 16.9267 51.941C16.826 51.8762 16.7581 51.8032 16.7227 51.722C16.6918 51.651 16.6745 51.5559 16.6709 51.4367C16.6775 51.3131 16.6913 51.1924 16.7125 51.0746C16.7437 50.9523 16.7766 50.8475 16.8109 50.7601C16.8555 50.6683 16.898 50.6136 16.9386 50.5959C16.9893 50.5738 17.0286 50.5809 17.0564 50.617C17.0798 50.6431 17.1026 50.6814 17.1247 50.7322C17.1525 50.7683 17.1825 50.8096 17.2148 50.8559C17.247 50.9022 17.2951 50.9296 17.3591 50.9379C17.4972 50.9502 17.6513 50.9435 17.8211 50.9178C18.0012 50.8877 18.2739 50.7932 18.6392 50.6341C19.106 50.4309 19.5114 50.1699 19.8554 49.8511C20.2052 49.5177 20.4793 49.163 20.6777 48.7869C20.8818 48.3963 20.9973 47.996 21.024 47.586C21.0609 47.1716 20.9953 46.7716 20.8275 46.386C20.5977 45.8583 20.2469 45.5101 19.7751 45.3413C19.3134 45.1681 18.7666 45.1044 18.1347 45.1501C17.5085 45.1813 16.8188 45.2885 16.0656 45.4715C15.3226 45.6502 14.5599 45.8253 13.7775 45.9969C12.9908 46.1584 12.1987 46.2799 11.4013 46.3615C10.6097 46.4285 9.85369 46.3835 9.13341 46.2263C8.42328 46.0647 7.76603 45.7473 7.16166 45.274C6.56744 44.7964 6.0671 44.0908 5.66064 43.1572C5.20559 42.112 4.98573 41.0247 5.00105 39.8955C5.01197 38.756 5.20094 37.6236 5.56799 36.4981C5.93503 35.3726 6.44398 34.2819 7.09481 33.226C7.74565 32.1701 8.47904 31.1929 9.295 30.2944C10.111 29.396 10.9784 28.6019 11.8973 27.9121C12.8219 27.2078 13.7307 26.6612 14.6237 26.2725C16.0646 25.6451 17.2733 25.4267 18.2495 25.6173C19.2315 25.7934 19.9434 26.3888 20.3852 27.4035C20.584 27.8602 20.6674 28.3429 20.6354 28.8517C20.6035 29.3606 20.5285 29.8399 20.4104 30.2896C20.288 30.7292 20.1536 31.1136 20.0072 31.4429C19.8666 31.7576 19.782 31.9514 19.7533 32.0242L19.6023 31.927C19.6081 31.9124 19.6574 31.7763 19.7504 31.5185C19.8434 31.2607 19.9244 30.9478 19.9935 30.5797C20.0626 30.2117 20.1033 29.8198 20.1154 29.4041C20.1276 28.9884 20.0563 28.6029 19.9017 28.2477C19.5438 27.4258 18.9388 26.9649 18.0866 26.8652C17.23 26.7553 16.1522 26.9831 14.8533 27.5486C13.5138 28.1318 12.3342 28.8325 11.3143 29.6507C10.2944 30.4689 9.41732 31.3517 8.68303 32.2991C7.95446 33.2319 7.36272 34.2018 6.9078 35.2086C6.46302 36.211 6.13871 37.1851 5.93485 38.1309C5.74115 39.0723 5.66193 39.9578 5.6972 40.7874C5.74262 41.6126 5.89345 42.3195 6.1497 42.9081C6.4943 43.6996 6.94449 44.2762 7.50026 44.6377C8.05162 44.9892 8.67197 45.208 9.36132 45.2941C10.0463 45.3701 10.7713 45.3442 11.5364 45.2163C12.3117 45.0839 13.0934 44.9247 13.8815 44.7385C14.6696 44.5523 15.4395 44.3801 16.1914 44.2217C16.9491 44.0488 17.6549 43.9648 18.3089 43.9698C18.9585 43.9646 19.5368 44.087 20.044 44.337C20.5468 44.5768 20.9373 45.0164 21.2157 45.6557C21.4719 46.2442 21.5986 46.7987 21.5958 47.3189C21.6031 47.8348 21.5281 48.3141 21.3708 48.7568C21.2134 49.1995 20.9963 49.6019 20.7193 49.9639C20.457 50.3316 20.1747 50.6537 19.8725 50.9301C19.5704 51.2065 19.2781 51.4363 18.9958 51.6196C18.7236 51.7984 18.5012 51.9254 18.3287 52.0005ZM27.4212 42.9902C27.3902 42.9192 27.3527 42.8329 27.3085 42.7314C27.2745 42.6255 27.2354 42.5218 27.1912 42.4204C27.147 42.3189 27.1094 42.2326 27.0785 42.1616C27.0533 42.076 27.0341 42.018 27.0208 41.9875C26.9899 41.9165 26.9548 41.8775 26.9155 41.8704C26.8864 41.859 26.8853 41.9258 26.9123 42.071C26.9097 42.1204 26.9199 42.2548 26.943 42.4741C26.966 42.6934 26.9814 42.9644 26.989 43.287C26.9923 43.5994 26.9812 43.9482 26.9558 44.3335C26.9361 44.7042 26.8772 45.0679 26.7789 45.4245C26.6763 45.771 26.5306 46.0879 26.3419 46.3753C26.1531 46.6626 25.9015 46.8748 25.5869 47.0118C25.11 47.2194 24.7148 47.2406 24.4014 47.0752C24.0937 46.8953 23.8272 46.5466 23.6019 46.0291C23.5356 45.8769 23.4559 45.6521 23.3626 45.3547C23.2649 45.0471 23.1701 44.7323 23.0782 44.4102C22.9818 44.078 22.8892 43.7682 22.8003 43.481C22.7071 43.1836 22.6273 42.9588 22.561 42.8066C22.3711 42.3702 22.1645 42.2007 21.9412 42.2979C21.8905 42.3199 21.847 42.3449 21.8108 42.3727C21.7747 42.4005 21.7464 42.4189 21.7261 42.4277C21.645 42.463 21.5867 42.4401 21.5514 42.3589C21.5381 42.3285 21.5566 42.2601 21.6069 42.1537C21.6628 42.0328 21.8329 41.9104 22.117 41.7867C22.4418 41.6454 22.718 41.6699 22.9458 41.8605C23.1838 42.0466 23.3734 42.302 23.5148 42.6267C23.5767 42.7688 23.6498 42.9784 23.7342 43.2555C23.8244 43.518 23.9161 43.798 24.0094 44.0953C24.1026 44.3927 24.1915 44.68 24.2759 44.9571C24.366 45.2196 24.4376 45.4117 24.4906 45.5335C24.6585 45.9191 24.8387 46.1666 25.0312 46.276C25.2293 46.3707 25.4401 46.3695 25.6633 46.2723C25.8764 46.1796 26.0491 46.0078 26.1814 45.7571C26.3194 45.4918 26.4238 45.2049 26.4947 44.8964C26.5713 44.5733 26.6204 44.2562 26.6419 43.9451C26.6633 43.634 26.6771 43.3745 26.6832 43.1666C26.6672 42.908 26.6322 42.6336 26.5782 42.3432C26.5242 42.0529 26.4651 41.7647 26.401 41.4788C26.3426 41.1783 26.2807 40.8975 26.2152 40.6362C26.1498 40.375 26.0976 40.1442 26.0587 39.9439C26.0392 39.8438 26.1091 39.7409 26.2684 39.6353C26.4232 39.5196 26.5869 39.4242 26.7594 39.3491C26.8507 39.3094 26.9096 39.3199 26.9361 39.3808C27.0466 39.6345 27.1917 39.9818 27.3716 40.4225C27.5514 40.8633 27.7407 41.312 27.9395 41.7686C28.4343 42.9052 28.8582 43.6984 29.211 44.1484C29.5695 44.5838 29.9517 44.7131 30.3577 44.5364C30.449 44.4966 30.5207 44.4533 30.5727 44.4065C30.6349 44.3553 30.6914 44.3186 30.7421 44.2966C30.7827 44.2789 30.8119 44.2903 30.8295 44.3309C30.8163 44.3005 30.8185 44.3056 30.8361 44.3462C30.8538 44.3867 30.8528 44.4536 30.8329 44.5467C30.8189 44.6253 30.7591 44.7237 30.6537 44.842C30.554 44.9458 30.3773 45.0529 30.1236 45.1634C29.8496 45.2826 29.6014 45.3364 29.379 45.3246C29.1623 45.2982 28.9496 45.1977 28.7408 45.023C28.5319 44.8484 28.3198 44.5967 28.1043 44.2681C27.8945 43.9248 27.6668 43.4989 27.4212 42.9902ZM29.1883 34.9962C29.239 34.9742 29.2984 35.069 29.3665 35.2808C29.4403 35.478 29.5254 35.7428 29.6217 36.075C29.7238 36.3927 29.8363 36.7481 29.9592 37.1412C30.0821 37.5344 30.2208 37.9085 30.3755 38.2637C30.6891 38.9842 30.988 39.6568 31.2721 40.2815C31.5663 40.9019 31.8589 41.5047 32.1501 42.0902C32.2419 41.3863 32.361 40.7309 32.5072 40.124C32.6636 39.5128 32.8486 38.9674 33.0624 38.4881C33.2762 38.0087 33.5231 37.6055 33.8032 37.2783C34.0788 36.9411 34.3943 36.6951 34.7494 36.5405C35.0336 36.4168 35.3074 36.3941 35.5709 36.4725C35.8299 36.5408 36.0456 36.7728 36.2179 37.1686C36.3416 37.4527 36.4067 37.7684 36.413 38.1157C36.4251 38.4485 36.3937 38.8062 36.3189 39.1888C36.2498 39.5569 36.148 39.9331 36.0136 40.3176C35.8894 40.6976 35.7534 41.0646 35.6057 41.4186C35.2443 42.252 34.8001 43.1032 34.2732 43.9724L34.0414 43.856C34.4148 43.0778 34.7318 42.3363 34.9922 41.6314C35.1024 41.3299 35.2053 41.0256 35.3009 40.7184C35.3921 40.4011 35.4652 40.0976 35.5202 39.8081C35.5708 39.5085 35.5976 39.2373 35.6006 38.9946C35.6093 38.7373 35.5739 38.5173 35.4943 38.3346C35.4678 38.2738 35.4223 38.197 35.3579 38.1044C35.3035 38.0073 35.2261 37.9264 35.1254 37.8615C35.0203 37.7866 34.8937 37.7451 34.7454 37.7373C34.6028 37.7148 34.4352 37.7456 34.2423 37.8295C34.009 37.9311 33.7957 38.1206 33.6025 38.3978C33.4094 38.675 33.237 39.0277 33.0854 39.4558C32.9395 39.8694 32.8145 40.3584 32.7101 40.9229C32.6116 41.4728 32.5351 42.0735 32.4807 42.7248C32.8394 43.4378 33.1921 44.1232 33.5388 44.781C33.8856 45.4388 34.225 46.0937 34.5572 46.7458C34.904 47.4036 35.2399 48.0782 35.565 48.7696C35.9003 49.4565 36.2358 50.1856 36.5716 50.9568C37.3492 52.7428 37.9281 54.3497 38.3083 55.7776C38.6987 57.201 38.9309 58.4277 39.0052 59.4576C39.0939 60.4933 39.0427 61.3184 38.8515 61.9327C38.6545 62.5617 38.3633 62.9601 37.9776 63.128C37.7544 63.2252 37.4965 63.2288 37.2038 63.139C36.9011 63.0535 36.5912 62.8685 36.2742 62.584C35.9515 62.3141 35.6289 61.9476 35.3065 61.4844C34.974 61.0256 34.6642 60.4664 34.377 59.8068C33.9573 58.8428 33.5825 57.7324 33.2527 56.4758C32.9229 55.2191 32.6559 53.8989 32.4518 52.5151C32.2419 51.1458 32.0929 49.7501 32.0049 48.3278C31.9212 46.9157 31.9062 45.5642 31.9598 44.2734L31.2971 42.7512C30.7758 41.5538 30.3642 40.4837 30.0623 39.5407C29.7662 38.5833 29.5465 37.7736 29.4032 37.1117C29.2554 36.4397 29.1711 35.9272 29.1502 35.5741C29.135 35.2065 29.1477 35.0139 29.1883 34.9962ZM35.7626 52.0514C35.3738 51.1584 35.0316 50.4141 34.7361 49.8185C34.4552 49.2286 34.1862 48.6939 33.9291 48.2143C33.6866 47.7405 33.439 47.2689 33.1863 46.7994C32.9438 46.3256 32.6688 45.7633 32.3614 45.1125C32.3557 46.1531 32.4019 47.2436 32.5 48.3838C32.6025 49.5342 32.7589 50.6974 32.9691 51.8734C33.1691 53.0538 33.4345 54.2178 33.7651 55.3654C34.0857 56.5175 34.4712 57.6111 34.9219 58.6461C35.0942 59.0419 35.3066 59.4745 35.5593 59.9439C35.8119 60.4133 36.0869 60.8368 36.384 61.2144C36.6711 61.5964 36.9627 61.892 37.2589 62.101C37.5494 62.3246 37.8266 62.379 38.0904 62.2641C38.2934 62.1757 38.4259 61.9672 38.4879 61.6384C38.55 61.3096 38.5498 60.8932 38.4873 60.3893C38.4248 59.8853 38.3067 59.3091 38.133 58.6604C37.9738 58.0175 37.7722 57.3327 37.5283 56.606C37.2843 55.8793 37.0119 55.1288 36.711 54.3545C36.4101 53.5802 36.0939 52.8125 35.7626 52.0514ZM40.3563 32.1258C40.5015 32.0988 40.605 32.1563 40.6669 32.2984C40.6845 32.339 40.6936 32.4014 40.6941 32.4857C40.7003 32.5554 40.6986 32.6346 40.6889 32.7233C40.685 32.7975 40.6738 32.8688 40.6553 32.9372C40.6323 32.9954 40.6057 33.0312 40.5752 33.0444C40.5245 33.0665 40.457 33.0778 40.3727 33.0783C40.284 33.0686 40.1648 33.0722 40.0152 33.0891C39.8612 33.0958 39.671 33.1303 39.4447 33.1926C39.2139 33.2448 38.926 33.346 38.581 33.4962C38.0939 33.7083 37.7277 33.9763 37.4825 34.3004C37.2373 34.6244 37.1854 34.9488 37.3268 35.2735C37.4284 35.5069 37.611 35.6628 37.8745 35.7412C38.1437 35.8051 38.4301 35.8252 38.7337 35.8017C39.0475 35.7737 39.3502 35.7204 39.6418 35.6417C39.9436 35.5586 40.1706 35.4839 40.3229 35.4176C40.4345 35.3691 40.5143 35.3584 40.5625 35.3858C40.6163 35.3985 40.6499 35.4201 40.6631 35.4506C40.6985 35.5318 40.685 35.598 40.6228 35.6492C40.5664 35.6858 40.494 35.7415 40.4058 35.8161C40.1817 36.0223 39.9636 36.2561 39.7515 36.5174C39.5349 36.7686 39.3519 37.0414 39.2025 37.3359C39.0587 37.6157 38.9666 37.9033 38.9262 38.1985C38.8857 38.4938 38.9252 38.7784 39.0444 39.0524C39.2433 39.509 39.5916 39.81 40.0894 39.9554C40.593 40.0862 41.1797 40.0058 41.8494 39.7143C42.6105 39.3829 43.1962 38.9952 43.6063 38.551C44.0121 38.0967 44.3111 37.6467 44.5033 37.2009C44.7056 36.7506 44.8318 36.3335 44.882 35.9496C44.9277 35.5555 44.9608 35.2574 44.9815 35.0552L45.0993 35.0764C45.1433 35.6487 45.121 36.2076 45.0326 36.7531C44.9543 37.2942 44.7909 37.806 44.5422 38.2884C44.2993 38.7563 43.9639 39.192 43.536 39.5956C43.1037 39.989 42.5629 40.3271 41.9134 40.6098C41.5177 40.7821 41.1303 40.8905 40.7512 40.9348C40.3766 40.9892 40.0299 40.9832 39.7113 40.9168C39.3926 40.8503 39.1121 40.7189 38.8698 40.5226C38.6274 40.3264 38.4355 40.0659 38.2941 39.7412C38.1307 39.3657 38.0755 39.0034 38.1288 38.6543C38.182 38.3052 38.2827 37.9958 38.4308 37.7261C38.5746 37.4463 38.7331 37.2143 38.9064 37.0302C39.0855 36.8315 39.2119 36.692 39.2855 36.6117C38.9488 36.6979 38.6322 36.7331 38.3357 36.7174C38.0841 36.6941 37.8301 36.6236 37.5737 36.5059C37.3128 36.3781 37.1073 36.1416 36.957 35.7966C36.8201 35.482 36.7725 35.1648 36.8142 34.8448C36.8516 34.5147 36.9596 34.2082 37.1381 33.9252C37.3269 33.6378 37.5688 33.3756 37.8639 33.1385C38.1648 32.8868 38.508 32.677 38.8936 32.5091C39.1168 32.4119 39.3467 32.3299 39.5832 32.2632C39.8299 32.192 40.0876 32.1462 40.3563 32.1258ZM46.0667 30.9433C46.3204 30.8329 46.5477 30.8003 46.7485 30.8457C46.9449 30.8809 47.1117 30.9591 47.249 31.0804C47.3921 31.1871 47.5069 31.3122 47.5934 31.4556C47.68 31.5989 47.7454 31.7214 47.7896 31.8228C47.8426 31.9446 47.9113 32.144 47.9957 32.4211C48.0801 32.6982 48.169 32.9855 48.2623 33.2829C48.3555 33.5803 48.4399 33.8573 48.5155 34.1141C48.5911 34.3709 48.6466 34.5399 48.6819 34.6211C48.7703 34.8241 48.8672 35.0052 48.9728 35.1644C49.0739 35.3135 49.1938 35.4364 49.3324 35.533C49.471 35.6295 49.6268 35.6824 49.7998 35.6916C49.9728 35.7008 50.176 35.6546 50.4094 35.5529C50.8356 35.3674 51.1893 34.9599 51.4706 34.3305C51.7518 33.701 51.9319 32.9225 52.0109 31.9948L52.1287 32.016C52.1806 32.44 52.1759 32.9008 52.1148 33.3981C52.0493 33.8854 51.935 34.3576 51.772 34.8149C51.6089 35.2721 51.4013 35.6824 51.149 36.0457C50.8924 36.3989 50.6017 36.6462 50.277 36.7875C50.003 36.9068 49.7554 36.9482 49.5343 36.9117C49.3189 36.8606 49.128 36.7687 48.9616 36.6359C48.7907 36.493 48.6459 36.3268 48.5271 36.1371C48.4039 35.9372 48.3025 35.746 48.223 35.5633C48.1258 35.34 48.0334 35.0724 47.9459 34.7605C47.854 34.4384 47.7642 34.1214 47.6767 33.8094C47.5949 33.4829 47.5168 33.1789 47.4426 32.8974C47.3683 32.6158 47.298 32.399 47.2318 32.2468C47.1743 32.1148 47.1026 32.0193 47.0165 31.9602C46.9405 31.8967 46.8582 31.8601 46.7695 31.8505C46.6764 31.8307 46.5921 31.8312 46.5167 31.8519C46.4412 31.8727 46.3832 31.8919 46.3426 31.9096C46.231 31.9582 46.0904 32.0375 45.921 32.1475C45.7618 32.253 45.5198 32.3765 45.1951 32.5178C45.1037 32.5576 45.0102 32.5923 44.9145 32.6219C44.8187 32.6515 44.7157 32.6783 44.6054 32.7022C44.7472 33.1112 44.8491 33.5255 44.9111 33.9451C44.9833 34.3604 45.0269 34.7518 45.0421 35.1194C45.0675 35.4825 45.07 35.8073 45.0499 36.0938C45.0253 36.37 44.9923 36.5715 44.9509 36.6982C44.819 36.7556 44.7265 36.7234 44.6735 36.6017C44.6571 36.5364 44.6548 36.3925 44.6667 36.1701C44.6842 35.9331 44.6847 35.6432 44.6682 35.3003C44.6619 34.953 44.6211 34.5543 44.5458 34.1042C44.4807 33.6497 44.3501 33.1694 44.1539 32.6633C43.5577 32.597 43.1071 32.2137 42.8023 31.5135C42.7184 31.3207 42.6832 31.1429 42.6968 30.98C42.7205 30.8128 42.8085 30.696 42.9607 30.6297C43.184 30.5326 43.3987 30.596 43.6049 30.8201C43.8168 31.0296 44.0279 31.3481 44.2382 31.7756C44.3181 31.765 44.3906 31.7515 44.456 31.7351C44.5314 31.7143 44.6148 31.6841 44.7061 31.6443C44.97 31.5294 45.2069 31.4082 45.4169 31.2806C45.637 31.1485 45.8536 31.0361 46.0667 30.9433ZM43.5788 31.5919C43.5965 31.6325 43.6344 31.6643 43.6927 31.6872C43.6605 31.6409 43.6282 31.5945 43.596 31.5482C43.5739 31.4975 43.5512 31.4591 43.5278 31.4331C43.4999 31.3969 43.4794 31.3636 43.4661 31.3331C43.4357 31.3464 43.417 31.3727 43.4099 31.4119C43.4029 31.4512 43.4592 31.5112 43.5788 31.5919ZM64.7276 43.877C64.4536 43.9963 64.1763 44.0386 63.8956 44.0039C63.6295 43.9749 63.3496 43.8312 63.056 43.5727C62.7726 43.3098 62.471 42.9221 62.1512 42.4095C61.8416 41.8924 61.5035 41.2128 61.1368 40.3705C60.3415 38.5439 59.6501 36.9558 59.0625 35.6062C58.4793 34.2667 57.9735 33.1048 57.5449 32.1204C57.1265 31.1317 56.7671 30.2923 56.4667 29.6022C56.1663 28.9122 55.9012 28.3033 55.6715 27.7757C55.4475 27.2334 55.2405 26.7441 55.0505 26.3078C54.8561 25.8613 54.6551 25.3996 54.4474 24.9226C54.1117 24.1514 53.7931 23.3365 53.4917 22.4779C53.1903 21.6192 52.926 20.7626 52.6987 19.9079C52.4816 19.0488 52.3177 18.2148 52.207 17.406C52.0963 16.5971 52.0637 15.8569 52.1093 15.1852C52.1548 14.5135 52.2969 13.9387 52.5354 13.4606C52.7695 12.9724 53.125 12.6245 53.6019 12.4169C53.7846 12.3373 53.9937 12.3187 54.2294 12.3609C54.4607 12.393 54.7003 12.4999 54.9484 12.6816C55.2023 12.8488 55.4471 13.0922 55.6829 13.4121C55.9289 13.7275 56.1557 14.1236 56.3633 14.6006C56.7256 15.4327 57.0032 16.3198 57.196 17.2619C57.3991 18.1995 57.5396 19.1463 57.6178 20.1021C57.6959 21.0579 57.7282 21.9914 57.7145 22.9027C57.7008 23.814 57.6686 24.6549 57.6178 25.4255C57.5669 26.196 57.504 26.8692 57.4288 27.4451C57.3536 28.0211 57.2914 28.4465 57.2421 28.7215C57.2553 28.7519 57.2679 28.7947 57.2799 28.8499C57.2975 28.8905 57.3285 28.9615 57.3726 29.063C57.4124 29.1543 57.4698 29.2862 57.545 29.4587C57.6156 29.6211 57.7179 29.8421 57.8518 30.1219C58.0103 30.4029 58.1912 30.638 58.3942 30.8272C58.6031 31.0019 58.8189 31.1372 59.0418 31.2333C59.2705 31.3149 59.4938 31.3565 59.7118 31.3581C59.9399 31.3554 60.1504 31.312 60.3432 31.2281C60.7491 31.0513 61.0689 30.8155 61.3027 30.5206C61.5422 30.2112 61.7284 29.8766 61.8615 29.5168C61.9902 29.147 62.0774 28.765 62.1231 28.3709C62.1644 27.9666 62.1949 27.5792 62.2145 27.2085L62.3476 27.223C62.3579 27.4961 62.3585 27.858 62.3495 28.3085C62.3506 28.7547 62.2965 29.2128 62.1873 29.6828C62.0882 30.1484 61.9135 30.5927 61.663 31.0156C61.4082 31.4283 61.0372 31.7407 60.5501 31.9528C60.408 32.0146 60.2463 32.073 60.065 32.1278C59.8894 32.168 59.6932 32.175 59.4765 32.1486C60.0085 32.6775 60.5136 33.1999 60.9918 33.716C61.4744 34.2422 61.9332 34.7969 62.3682 35.3801C62.8133 35.9589 63.2311 36.5858 63.6215 37.2608C64.0265 37.9415 64.4146 38.708 64.7857 39.5605C65.0198 40.0983 65.1862 40.6052 65.2849 41.0814C65.3981 41.5632 65.4522 41.9923 65.447 42.3688C65.4463 42.7553 65.3821 43.0791 65.2542 43.3399C65.1264 43.6008 64.9508 43.7798 64.7276 43.877ZM55.4275 24.3873C55.5556 24.6816 55.6875 24.9983 55.8232 25.3376C55.969 25.6725 56.1075 26.0045 56.2387 26.3337C56.3655 26.6527 56.4879 26.9615 56.6059 27.2602C56.734 27.5545 56.8445 27.8082 56.9372 28.0213C56.9684 27.6215 57.0019 27.1301 57.0378 26.5471C57.0838 25.9597 57.1151 25.3244 57.1315 24.6413C57.1537 23.9436 57.148 23.2097 57.1145 22.4397C57.0912 21.6652 57.0308 20.8888 56.9333 20.1103C56.846 19.3275 56.7086 18.5544 56.5211 17.7911C56.3438 17.0233 56.1071 16.2995 55.8111 15.6196C55.652 15.2543 55.4815 14.9181 55.2996 14.611C55.1233 14.2894 54.9315 14.0289 54.724 13.8296C54.5266 13.6258 54.3107 13.4904 54.0764 13.4234C53.8477 13.3419 53.5964 13.3608 53.3224 13.4801C53.0383 13.6038 52.842 13.8462 52.7337 14.2072C52.6209 14.5581 52.5849 15.0023 52.6258 15.5397C52.6622 16.0671 52.7616 16.6696 52.9239 17.3474C53.0862 18.0251 53.293 18.7499 53.5445 19.5216C53.7916 20.2831 54.0788 21.0815 54.4062 21.9167C54.7292 22.7418 55.0697 23.5653 55.4275 24.3873ZM63.9297 39.2994C63.5806 38.4977 63.1963 37.7537 62.7768 37.0672C62.3572 36.3808 61.9182 35.7329 61.4599 35.1237C61.0059 34.5247 60.5332 33.9519 60.0418 33.4054C59.5548 32.869 59.0722 32.3427 58.594 31.8267L59.7206 34.4143C60.0387 35.145 60.3517 35.8778 60.6596 36.6129C60.9822 37.3536 61.2965 38.0618 61.6026 38.7372C61.9088 39.4127 62.2001 40.0403 62.4767 40.62C62.7634 41.1954 63.0271 41.6901 63.2678 42.1044C63.5085 42.5187 63.7275 42.8277 63.9249 43.0315C64.1368 43.241 64.3138 43.3148 64.4559 43.253C64.6081 43.1867 64.7186 43.0662 64.7873 42.8914C64.8707 42.7223 64.8933 42.4831 64.8552 42.1738C64.8316 41.8702 64.7407 41.4812 64.5825 41.0069C64.4389 40.5383 64.2213 39.9692 63.9297 39.2994ZM66.0756 23.6081C65.9843 23.6479 65.8759 23.6347 65.7506 23.5686C65.6309 23.4879 65.4837 23.4132 65.309 23.3444C65.1342 23.2757 64.9283 23.2325 64.6913 23.215C64.46 23.1829 64.1922 23.2331 63.8878 23.3656C63.4616 23.5512 63.1144 23.8351 62.8463 24.2174C62.5737 24.5896 62.3784 25.0005 62.2604 25.4502C62.1379 25.8898 62.0867 26.3406 62.1068 26.8027C62.1326 27.2501 62.2207 27.6464 62.3709 27.9914C62.605 28.5292 62.9342 28.911 63.3584 29.1368C63.7826 29.3625 64.223 29.3759 64.6797 29.1771C65.0348 29.0225 65.3156 28.8218 65.522 28.575C65.7342 28.3137 65.883 28.0316 65.9684 27.7288C65.7883 27.4813 65.6098 27.1546 65.4331 26.7487C65.2431 26.3124 65.1189 25.944 65.0605 25.6435C65.0123 25.3386 65.0007 25.0901 65.0257 24.8981C65.061 24.7017 65.1182 24.5561 65.1976 24.4612C65.2726 24.3561 65.3456 24.2881 65.4166 24.2572C65.4978 24.2218 65.6134 24.2379 65.7635 24.3053C65.9237 24.3684 66.0657 24.5419 66.1894 24.8261C66.344 25.1812 66.4415 25.5854 66.4819 26.0386C66.528 26.4772 66.5168 26.9227 66.4482 27.3751C66.7069 27.6367 66.994 27.7833 67.3096 27.8149C67.6251 27.8465 67.9453 27.7916 68.27 27.6502C68.5541 27.5265 68.7915 27.3508 68.982 27.123C69.1782 26.8806 69.3365 26.6065 69.4569 26.3006C69.5873 25.9903 69.6893 25.6562 69.7628 25.2983C69.8319 24.9302 69.8836 24.5637 69.9179 24.1987L70.0357 24.2198C70.0818 24.6584 70.0829 25.1046 70.039 25.5583C69.9951 26.0119 69.9031 26.4383 69.7629 26.8373C69.6228 27.2363 69.433 27.5905 69.1935 27.9C68.9598 28.1949 68.6755 28.4152 68.3406 28.561C68.0869 28.6715 67.7725 28.7118 67.3974 28.682C67.028 28.6376 66.6519 28.4392 66.2691 28.0868C66.118 28.5992 65.8947 29.0706 65.5993 29.501C65.2994 29.9213 64.9161 30.233 64.4493 30.4363C64.1854 30.5511 63.9205 30.5941 63.6543 30.5651C63.3882 30.5361 63.1349 30.4533 62.8943 30.3166C62.6639 30.1755 62.4484 29.9856 62.248 29.747C62.0475 29.5083 61.881 29.2368 61.7484 28.9323C61.5231 28.4148 61.4094 27.8487 61.4074 27.234C61.4154 26.6148 61.5166 26.0155 61.711 25.436C61.9154 24.852 62.206 24.3272 62.5826 23.8614C62.965 23.3811 63.4251 23.0239 63.9629 22.7897C64.3587 22.6174 64.7084 22.5195 65.012 22.4959C65.3213 22.4578 65.5837 22.4643 65.799 22.5154C66.01 22.5563 66.1775 22.6222 66.3016 22.7131C66.4256 22.8039 66.5031 22.8849 66.534 22.9559C66.5959 23.098 66.5639 23.2326 66.4382 23.3597C66.3183 23.4723 66.1974 23.5551 66.0756 23.6081ZM65.6784 26.1893C65.8242 26.5241 65.9805 26.8001 66.1475 27.0171C66.176 26.6667 66.1617 26.3289 66.1046 26.0037C66.0431 25.6684 65.966 25.3941 65.8732 25.181C65.7627 24.9273 65.6618 24.8204 65.5705 24.8601C65.4792 24.8999 65.4364 25.0513 65.4423 25.3143C65.4583 25.5729 65.537 25.8645 65.6784 26.1893ZM69.5578 26.1661C69.6642 25.4679 69.7308 24.7751 69.7573 24.0875C69.7795 23.3898 69.7626 22.7272 69.7067 22.0997C69.3129 21.8607 68.9525 21.6012 68.6254 21.3211C68.304 21.0265 68.0593 20.6864 67.8914 20.3008C67.728 19.9253 67.6155 19.5699 67.554 19.2345C67.4925 18.8992 67.4762 18.5984 67.5052 18.3323C67.5342 18.0662 67.6005 17.8442 67.7041 17.6663C67.8033 17.4783 67.9341 17.3489 68.0965 17.2782C68.3197 17.181 68.5459 17.2153 68.775 17.3811C69.0143 17.5425 69.1989 17.8002 69.3288 18.154C69.4852 18.5688 69.6194 19.0294 69.7313 19.536C69.8533 20.0381 69.9392 20.5681 69.9889 21.1258C70.2934 21.2709 70.6031 21.4137 70.9178 21.5543C71.2382 21.6804 71.5377 21.8276 71.8163 21.9961C72.105 22.1601 72.367 22.3599 72.6023 22.5954C72.8434 22.8164 73.0346 23.0892 73.176 23.4139C73.3704 23.8604 73.463 24.309 73.454 24.7595C73.4551 25.2057 73.3986 25.6166 73.2845 25.9922C73.1704 26.3678 73.0196 26.6869 72.8322 26.9496C72.6447 27.2122 72.4597 27.3833 72.2771 27.4629C71.9625 27.5998 71.6836 27.6247 71.4404 27.5374C71.2073 27.4457 71.0488 27.3035 70.9649 27.1107C70.8986 26.9585 70.8577 26.7952 70.8422 26.6209C70.8267 26.4466 70.8228 26.2853 70.8307 26.137C70.8443 25.9742 70.8639 25.8389 70.8894 25.7312C70.9251 25.6191 70.9582 25.5564 70.9886 25.5432C71.0394 25.5211 71.0786 25.5281 71.1065 25.5643C71.14 25.5859 71.1634 25.6119 71.1767 25.6424C71.1987 25.6931 71.2246 25.7664 71.2542 25.8621C71.2838 25.9579 71.3119 26.0362 71.3384 26.0971C71.4135 26.2696 71.5312 26.3873 71.6914 26.4504C71.8618 26.509 72.0789 26.4808 72.3427 26.366C72.4543 26.3174 72.5701 26.2368 72.6901 26.1242C72.8101 26.0116 72.9117 25.8708 72.9951 25.7017C73.0784 25.5327 73.1253 25.3493 73.1358 25.1516C73.152 24.9393 73.1093 24.7165 73.0077 24.4831C72.9149 24.27 72.767 24.0688 72.5639 23.8796C72.3608 23.6904 72.1251 23.5093 71.8567 23.3365C71.5883 23.1636 71.2974 22.9945 70.984 22.8292C70.6807 22.6595 70.3752 22.4846 70.0676 22.3047C70.086 22.9848 70.0724 23.6606 70.0269 24.3323C69.987 24.9894 69.9092 25.6148 69.7935 26.2084L69.5578 26.1661ZM67.9578 19.3303C68.1257 19.7159 68.3469 20.03 68.6215 20.2726C68.8917 20.505 69.2054 20.7125 69.5625 20.895C69.5067 20.5451 69.4322 20.2215 69.3389 19.9241C69.2412 19.6165 69.135 19.3308 69.0201 19.067C68.7108 18.3567 68.3989 18.07 68.0843 18.2069C67.993 18.2467 67.9123 18.3663 67.8422 18.5658C67.7779 18.7508 67.8164 19.0056 67.9578 19.3303ZM79.9238 19.9148C79.9412 20.1487 79.9488 20.4713 79.9468 20.8826C79.9448 21.2939 79.8848 21.7244 79.7667 22.1741C79.6544 22.6093 79.4613 23.0253 79.1875 23.4222C78.9238 23.8146 78.544 24.1067 78.0481 24.2985C77.5985 24.458 77.1779 24.4902 76.7864 24.3951C76.395 24.3 76.0085 24.0638 75.627 23.6867C75.2411 23.2995 74.8552 22.7734 74.4691 22.1086C74.0787 21.4336 73.667 20.5988 73.234 19.6044C72.8187 18.6505 72.4708 17.7819 72.1902 16.9988C71.9052 16.2055 71.6751 15.4969 71.5 14.8729C71.0421 15.0965 70.6406 15.2833 70.2956 15.4335C69.9404 15.5882 69.6918 15.6964 69.5497 15.7583C69.2554 15.8864 68.9574 15.992 68.6556 16.0751C68.3436 16.1627 68.0387 16.2109 67.7408 16.2199C67.443 16.2289 67.1521 16.1985 66.8684 16.129C66.5802 16.0492 66.3098 15.9134 66.0573 15.7216L66.0585 15.5581C66.0775 15.574 66.1503 15.6026 66.277 15.644C66.3891 15.6797 66.5745 15.6896 66.833 15.6736C67.0916 15.6575 67.4292 15.6011 67.8457 15.5043C68.2579 15.3973 68.7684 15.2112 69.3772 14.9461L71.2799 14.1178C71.0447 13.1338 70.911 12.3832 70.879 11.866C70.8527 11.3343 70.8435 10.9943 70.8513 10.846C70.8574 10.6381 70.91 10.4402 71.0092 10.2521C71.1186 10.0597 71.2291 9.93914 71.3407 9.89054C71.5538 9.79776 71.8147 9.92561 72.1233 10.2741C72.432 10.6226 72.7718 11.223 73.1429 12.0754C73.2092 12.2276 73.2748 12.3922 73.3398 12.5691C73.4003 12.7359 73.4681 12.9055 73.5433 13.0781C74.0259 12.8558 74.4832 12.6447 74.9152 12.4446C75.3572 12.24 75.7486 12.0576 76.0892 11.8972C76.4399 11.7324 76.7298 11.5942 76.9588 11.4824C77.1979 11.3662 77.3508 11.2876 77.4174 11.2465C77.4681 11.2244 77.5522 11.1818 77.6695 11.1186C77.7869 11.0555 77.8659 11.0151 77.9064 10.9974C78.0688 10.9267 78.1721 10.9421 78.2163 11.0436C78.2781 11.1856 78.2899 11.3374 78.2516 11.499C78.219 11.6459 78.0752 11.787 77.8202 11.9222C77.7739 11.9544 77.6261 12.0308 77.3768 12.1514C77.1333 12.2575 76.826 12.3973 76.4549 12.5709C76.0839 12.7445 75.6694 12.9431 75.2114 13.1666C74.749 13.38 74.2787 13.6028 73.8005 13.8352C74.0745 14.7419 74.3027 15.7652 74.4851 16.905C74.6631 18.0346 74.7676 19.2867 74.7987 20.6614C75.1309 21.3134 75.4297 21.8473 75.6952 22.2628C75.9707 22.674 76.2341 22.9879 76.4853 23.2044C76.7321 23.4108 76.9762 23.5279 77.2176 23.5555C77.4692 23.5788 77.7319 23.5308 78.0059 23.4115C78.3002 23.2834 78.5499 23.1083 78.755 22.8862C78.9601 22.6641 79.1288 22.4277 79.261 22.177C79.399 21.9117 79.5022 21.6495 79.5704 21.3905C79.6444 21.1168 79.6946 20.8717 79.721 20.655C79.7575 20.4339 79.7768 20.2564 79.779 20.1227C79.7913 19.9846 79.8003 19.9083 79.806 19.8937L79.9238 19.9148ZM73.2068 14.0937C73.0343 14.1688 72.8691 14.2467 72.7111 14.3276C72.5532 14.4084 72.388 14.4864 72.2155 14.5615C72.4368 15.1531 72.6699 15.7578 72.9147 16.3755C73.1696 16.9888 73.4164 17.5694 73.655 18.1174L74.4038 19.8374C74.2961 18.7859 74.1435 17.784 73.9462 16.8318C73.7591 15.8751 73.5126 14.9624 73.2068 14.0937ZM71.9649 13.8196C72.1272 13.7489 72.2874 13.6731 72.4453 13.5923C72.609 13.4969 72.7771 13.4116 72.9496 13.3365L72.7243 12.819C72.5034 12.3116 72.3115 11.9123 72.1485 11.6211C71.9855 11.33 71.8484 11.112 71.7371 10.9673C71.6315 10.8081 71.5423 10.7141 71.4695 10.6855C71.4024 10.6423 71.3536 10.6273 71.3232 10.6405C71.242 10.6759 71.2041 10.7829 71.2095 10.9616C71.2149 11.1404 71.2496 11.3727 71.3138 11.6586C71.3735 11.9344 71.4604 12.2587 71.5744 12.6316C71.6884 13.0044 71.8186 13.4004 71.9649 13.8196Z" fill="black"/>
</svg>
