<svg width="45" height="37" viewBox="0 0 45 37" fill="none" xmlns="http://www.w3.org/2000/svg">
<path d="M8.87063 25.2285C8.67141 25.2285 8.48326 25.1953 8.30618 25.1289C8.14016 25.0736 7.99628 25.0016 7.87454 24.9131C7.76386 24.8245 7.67532 24.7249 7.60891 24.6143C7.54251 24.5146 7.5093 24.4206 7.5093 24.332C7.5093 24.2546 7.53144 24.1605 7.57571 24.0498C7.63105 23.9391 7.69192 23.834 7.75833 23.7344C7.8358 23.6348 7.90774 23.5518 7.97415 23.4854C8.05162 23.4189 8.11249 23.3857 8.15676 23.3857C8.2121 23.3857 8.24531 23.4079 8.25637 23.4521C8.26744 23.4854 8.27298 23.5296 8.27298 23.585C8.28404 23.6292 8.29511 23.679 8.30618 23.7344C8.31725 23.7897 8.35045 23.834 8.40579 23.8672C8.52753 23.9336 8.67141 23.9889 8.83743 24.0332C9.01451 24.0775 9.30227 24.0996 9.70071 24.0996C10.2098 24.0996 10.6857 24.0221 11.1284 23.8672C11.5822 23.7012 11.9751 23.4854 12.3072 23.2197C12.6503 22.943 12.9159 22.6221 13.104 22.2568C13.3032 21.8916 13.4029 21.4987 13.4029 21.0781C13.4029 20.5026 13.2202 20.0433 12.855 19.7002C12.5008 19.3571 12.0249 19.0804 11.4273 18.8701C10.8407 18.6488 10.1656 18.4717 9.40188 18.3389C8.64928 18.2061 7.88007 18.0622 7.09426 17.9072C6.30846 17.7412 5.53372 17.5365 4.77005 17.293C4.01744 17.0384 3.34231 16.6953 2.74466 16.2637C2.15807 15.832 1.68216 15.2786 1.31692 14.6035C0.962755 13.9284 0.785671 13.0817 0.785671 12.0635C0.785671 10.9235 1.01809 9.83887 1.48294 8.80957C1.94778 7.76921 2.57311 6.80632 3.35891 5.9209C4.14472 5.03548 5.04674 4.23861 6.06497 3.53027C7.0832 2.82194 8.1457 2.21875 9.25247 1.7207C10.3592 1.22266 11.4715 0.84082 12.5894 0.575195C13.7183 0.298503 14.7697 0.160156 15.7437 0.160156C17.3153 0.160156 18.5106 0.442383 19.3296 1.00684C20.1597 1.56022 20.5747 2.3903 20.5747 3.49707C20.5747 3.99512 20.4585 4.47103 20.2261 4.9248C19.9937 5.37858 19.7336 5.78809 19.4458 6.15332C19.1581 6.50749 18.8814 6.80632 18.6157 7.0498C18.3612 7.28223 18.2062 7.42611 18.1509 7.48145L18.0513 7.33203C18.0624 7.32096 18.162 7.21582 18.3501 7.0166C18.5383 6.81738 18.7375 6.56283 18.9478 6.25293C19.1581 5.94303 19.3518 5.59993 19.5288 5.22363C19.7059 4.84733 19.7945 4.46549 19.7945 4.07812C19.7945 3.18164 19.4237 2.51758 18.6822 2.08594C17.9406 1.64323 16.8615 1.42188 15.4449 1.42188C13.9839 1.42188 12.6226 1.59342 11.3609 1.93652C10.0991 2.27962 8.94257 2.73893 7.89114 3.31445C6.85078 3.87891 5.92109 4.5319 5.10208 5.27344C4.29413 6.01497 3.60794 6.77865 3.04348 7.56445C2.4901 8.35026 2.06399 9.13053 1.76516 9.90527C1.4774 10.68 1.33352 11.3883 1.33352 12.0303C1.33352 12.8936 1.51614 13.6019 1.88137 14.1553C2.24661 14.6976 2.72805 15.1458 3.32571 15.5C3.92337 15.8431 4.5985 16.1087 5.3511 16.2969C6.11477 16.485 6.89505 16.651 7.69192 16.7949C8.4888 16.9388 9.26354 17.0882 10.0161 17.2432C10.7798 17.387 11.4605 17.5918 12.0581 17.8574C12.6558 18.112 13.1372 18.4551 13.5025 18.8867C13.8677 19.3073 14.0503 19.8662 14.0503 20.5635C14.0503 21.2054 13.9452 21.7643 13.7349 22.2402C13.5357 22.7161 13.2756 23.1257 12.9546 23.4688C12.6337 23.8118 12.274 24.0941 11.8755 24.3154C11.4881 24.5479 11.1008 24.7305 10.7134 24.8633C10.326 24.9961 9.96634 25.0902 9.6343 25.1455C9.31334 25.2008 9.05878 25.2285 8.87063 25.2285ZM21.5178 24C21.2633 24 21.0641 23.8672 20.9202 23.6016C20.7874 23.3359 20.6822 23.0039 20.6047 22.6055C20.5273 22.207 20.4664 21.7754 20.4221 21.3105C20.3889 20.8457 20.3502 20.4141 20.3059 20.0156C20.2617 19.6172 20.2063 19.2852 20.1399 19.0195C20.0735 18.7539 19.9684 18.6211 19.8245 18.6211C19.7249 18.6211 19.6031 18.7207 19.4592 18.9199C19.3264 19.1081 19.1936 19.335 19.0608 19.6006C18.928 19.8551 18.8007 20.1208 18.679 20.3975C18.5683 20.6631 18.4742 20.8789 18.3967 21.0449C18.275 21.2995 18.1643 21.5264 18.0647 21.7256C17.9762 21.9248 17.8876 22.1074 17.7991 22.2734C17.7105 22.4395 17.622 22.5999 17.5335 22.7549C17.456 22.8988 17.3674 23.0426 17.2678 23.1865C17.2125 23.2751 17.1406 23.347 17.052 23.4023C16.9745 23.4577 16.8915 23.4854 16.803 23.4854C16.6702 23.4854 16.565 23.3747 16.4876 23.1533C16.4101 22.932 16.3492 22.6774 16.3049 22.3896C16.2717 22.1019 16.2496 21.8141 16.2385 21.5264C16.2275 21.2275 16.2219 21.0007 16.2219 20.8457C16.2219 20.6686 16.2219 20.4528 16.2219 20.1982C16.233 19.9437 16.2441 19.6947 16.2551 19.4512C16.2662 19.2077 16.2717 18.9863 16.2717 18.7871C16.2828 18.5879 16.2883 18.4551 16.2883 18.3887C16.2883 18.1895 16.2773 18.0234 16.2551 17.8906C16.2441 17.7578 16.2275 17.6527 16.2053 17.5752C16.1832 17.4977 16.1611 17.4424 16.1389 17.4092C16.1279 17.3649 16.1223 17.3317 16.1223 17.3096C16.1223 17.221 16.1666 17.138 16.2551 17.0605C16.3547 16.9831 16.4322 16.9277 16.4876 16.8945C16.5429 16.8613 16.6314 16.806 16.7532 16.7285C16.8749 16.64 16.969 16.5957 17.0354 16.5957C17.0908 16.5957 17.135 16.64 17.1682 16.7285C17.2014 16.8171 17.2236 16.9222 17.2346 17.0439C17.2568 17.1657 17.2678 17.2985 17.2678 17.4424C17.2678 17.5752 17.2678 17.6969 17.2678 17.8076C17.2678 18.0954 17.2568 18.3942 17.2346 18.7041C17.2236 19.0029 17.207 19.2962 17.1848 19.584C17.1738 19.8607 17.1627 20.1208 17.1516 20.3643C17.1406 20.5967 17.135 20.7904 17.135 20.9453C17.135 21.2331 17.1461 21.4821 17.1682 21.6924C17.1904 21.8916 17.2457 21.9912 17.3342 21.9912C17.3896 21.9912 17.4615 21.9193 17.5501 21.7754C17.6497 21.6315 17.7548 21.4544 17.8655 21.2441C17.9762 21.0339 18.0868 20.8125 18.1975 20.5801C18.3082 20.3477 18.4078 20.1484 18.4964 19.9824C18.607 19.7611 18.7232 19.5176 18.845 19.252C18.9778 18.9753 19.1161 18.7207 19.26 18.4883C19.4039 18.2448 19.5589 18.0456 19.7249 17.8906C19.8909 17.7246 20.068 17.6416 20.2561 17.6416C20.5107 17.6416 20.6933 17.7301 20.804 17.9072C20.9146 18.0843 20.9977 18.3223 21.053 18.6211C21.0641 18.7318 21.0807 18.9255 21.1028 19.2021C21.1249 19.4788 21.1526 19.7887 21.1858 20.1318C21.2301 20.4749 21.2743 20.8346 21.3186 21.2109C21.3629 21.5762 21.4182 21.9137 21.4846 22.2236C21.5621 22.5335 21.6451 22.7881 21.7337 22.9873C21.8333 23.1865 21.9439 23.2861 22.0657 23.2861C22.2206 23.2861 22.3977 23.2087 22.5969 23.0537C22.7962 22.8988 23.0009 22.6885 23.2112 22.4229C23.4215 22.1572 23.6262 21.8529 23.8255 21.5098C24.0247 21.1556 24.2073 20.7848 24.3733 20.3975C24.1077 20.1872 23.914 19.9105 23.7922 19.5674C23.6816 19.2132 23.6262 18.8424 23.6262 18.4551C23.6262 18.112 23.665 17.8021 23.7424 17.5254C23.8199 17.2487 23.914 17.0107 24.0247 16.8115C24.1464 16.6123 24.2792 16.4574 24.4231 16.3467C24.5781 16.236 24.7219 16.1807 24.8547 16.1807C25.1093 16.1807 25.2919 16.3135 25.4026 16.5791C25.5133 16.8337 25.5686 17.1214 25.5686 17.4424C25.5686 17.7301 25.5188 18.0898 25.4192 18.5215C25.3196 18.9531 25.1757 19.418 24.9876 19.916C25.1093 19.9714 25.2366 20.0101 25.3694 20.0322C25.5022 20.0433 25.6461 20.0488 25.801 20.0488C26.0999 20.0488 26.3655 20.0156 26.5979 19.9492C26.8303 19.8828 27.0462 19.7777 27.2454 19.6338C27.4557 19.4899 27.6549 19.3073 27.843 19.0859C28.0312 18.8646 28.2249 18.599 28.4241 18.2891L28.6233 18.3887C28.4794 18.599 28.3023 18.8369 28.0921 19.1025C27.8928 19.3682 27.6604 19.6227 27.3948 19.8662C27.1292 20.0986 26.8303 20.2979 26.4983 20.4639C26.1663 20.6188 25.801 20.6963 25.4026 20.6963C25.148 20.6963 24.9212 20.6631 24.7219 20.5967C24.5338 21.0283 24.3235 21.4489 24.0911 21.8584C23.8587 22.2679 23.6041 22.6331 23.3274 22.9541C23.0507 23.264 22.7574 23.5186 22.4475 23.7178C22.1487 23.9059 21.8388 24 21.5178 24ZM23.9749 18.0234C23.9749 18.3997 24.0247 18.7318 24.1243 19.0195C24.235 19.2962 24.412 19.5286 24.6555 19.7168C24.7441 19.429 24.816 19.1357 24.8714 18.8369C24.9267 18.5381 24.9544 18.2559 24.9544 17.9902C24.9544 17.3262 24.8049 16.9941 24.5061 16.9941C24.3844 16.9941 24.2626 17.0882 24.1409 17.2764C24.0302 17.4535 23.9749 17.7025 23.9749 18.0234ZM27.8896 17.0938C27.9782 17.0938 28.0612 17.1214 28.1387 17.1768C28.2272 17.221 28.2992 17.2708 28.3545 17.3262C28.4209 17.3815 28.4707 17.4424 28.5039 17.5088C28.5482 17.5641 28.5703 17.5973 28.5703 17.6084C28.5703 17.6195 28.5537 17.6803 28.5205 17.791C28.4984 17.8906 28.4652 18.0622 28.4209 18.3057C28.3877 18.5492 28.3545 18.8701 28.3213 19.2686C28.2992 19.6559 28.2881 20.1429 28.2881 20.7295C28.2881 21.5153 28.3822 22.0632 28.5703 22.373C28.7695 22.6829 29.0075 22.8379 29.2842 22.8379C29.5609 22.8379 29.832 22.7549 30.0977 22.5889C30.3743 22.4229 30.6344 22.207 30.8779 21.9414C31.1214 21.6758 31.3483 21.377 31.5586 21.0449C31.7799 20.7018 31.9736 20.3587 32.1396 20.0156L32.2393 20.082C32.195 20.1927 32.1286 20.3643 32.04 20.5967C31.9515 20.818 31.8408 21.0615 31.708 21.3271C31.5752 21.5928 31.4147 21.8695 31.2266 22.1572C31.0495 22.4339 30.8392 22.6885 30.5957 22.9209C30.3633 23.1423 30.1032 23.3304 29.8154 23.4854C29.5387 23.6292 29.2344 23.7012 28.9023 23.7012C28.6699 23.7012 28.4541 23.6569 28.2549 23.5684C28.0667 23.4798 27.8952 23.3193 27.7402 23.0869C27.5964 22.8434 27.4801 22.5114 27.3916 22.0908C27.3141 21.6702 27.2754 21.1279 27.2754 20.4639C27.2754 20.1208 27.2865 19.7555 27.3086 19.3682C27.3418 18.9697 27.3805 18.6045 27.4248 18.2725C27.4801 17.9294 27.5465 17.6471 27.624 17.4258C27.7015 17.2044 27.79 17.0938 27.8896 17.0938ZM28.2881 12.9766C28.5648 12.9766 28.764 13.0762 28.8857 13.2754C29.0075 13.4635 29.0684 13.696 29.0684 13.9727C29.0684 14.2936 28.9798 14.5426 28.8027 14.7197C28.6257 14.8968 28.4098 14.9854 28.1553 14.9854C27.9671 14.9854 27.7845 14.9134 27.6074 14.7695C27.4303 14.6257 27.3418 14.3932 27.3418 14.0723C27.3418 13.7181 27.4303 13.4469 27.6074 13.2588C27.7845 13.0706 28.0114 12.9766 28.2881 12.9766ZM33.2488 36.3018C32.9499 36.3018 32.6788 36.2298 32.4353 36.0859C32.2029 35.9531 32.0036 35.7096 31.8376 35.3555C31.6827 35.0013 31.5609 34.5254 31.4724 33.9277C31.3949 33.3301 31.3562 32.5719 31.3562 31.6533C31.3562 29.6611 31.3562 27.929 31.3562 26.457C31.3562 24.9961 31.3562 23.7288 31.3562 22.6553C31.3673 21.5817 31.3728 20.6686 31.3728 19.916C31.3728 19.1634 31.3728 18.4993 31.3728 17.9238C31.3839 17.3372 31.3894 16.806 31.3894 16.3301C31.3894 15.8431 31.3894 15.3395 31.3894 14.8193C31.3894 13.9782 31.4226 13.1038 31.489 12.1963C31.5554 11.2887 31.655 10.3978 31.7878 9.52344C31.9317 8.64909 32.1143 7.81901 32.3357 7.0332C32.557 6.2474 32.8227 5.55566 33.1326 4.95801C33.4424 4.36035 33.8021 3.88997 34.2117 3.54688C34.6212 3.19271 35.086 3.01562 35.6062 3.01562C35.8054 3.01562 36.0046 3.08203 36.2038 3.21484C36.4031 3.33659 36.5801 3.53027 36.7351 3.7959C36.9011 4.05046 37.0284 4.37142 37.1169 4.75879C37.2165 5.14616 37.2663 5.59993 37.2663 6.12012C37.2663 7.02767 37.1667 7.95182 36.9675 8.89258C36.7794 9.83333 36.5303 10.7575 36.2204 11.665C35.9105 12.5726 35.5674 13.4414 35.1911 14.2715C34.8148 15.1016 34.4496 15.8597 34.0954 16.5459C33.7413 17.2321 33.4148 17.8242 33.116 18.3223C32.8171 18.8203 32.5902 19.1855 32.4353 19.418C32.4353 19.4512 32.4298 19.4954 32.4187 19.5508C32.4187 19.5951 32.4187 19.6725 32.4187 19.7832C32.4187 19.8828 32.4187 20.0267 32.4187 20.2148C32.4187 20.3919 32.4242 20.6354 32.4353 20.9453C32.4685 21.2663 32.5404 21.554 32.6511 21.8086C32.7729 22.0521 32.9167 22.2624 33.0827 22.4395C33.2598 22.6055 33.448 22.7327 33.6472 22.8213C33.8575 22.9098 34.0678 22.9541 34.2781 22.9541C34.7208 22.9541 35.1081 22.8656 35.4402 22.6885C35.7833 22.5003 36.0876 22.2679 36.3533 21.9912C36.6189 21.7035 36.8513 21.388 37.0505 21.0449C37.2497 20.6908 37.4324 20.3477 37.5984 20.0156L37.7146 20.082C37.615 20.3366 37.4711 20.6686 37.2829 21.0781C37.1059 21.4876 36.8734 21.8861 36.5857 22.2734C36.309 22.6608 35.9714 22.9984 35.573 23.2861C35.1745 23.5628 34.7097 23.7012 34.1785 23.7012C34.0235 23.7012 33.852 23.6901 33.6638 23.668C33.4867 23.6348 33.3041 23.5628 33.116 23.4521C33.3926 24.1494 33.6472 24.8301 33.8796 25.4941C34.112 26.1693 34.3113 26.861 34.4773 27.5693C34.6544 28.2777 34.7872 29.0192 34.8757 29.7939C34.9753 30.5798 35.0251 31.4375 35.0251 32.3672C35.0251 32.9538 34.9753 33.485 34.8757 33.9609C34.7872 34.4479 34.6654 34.863 34.5105 35.2061C34.3555 35.5602 34.1674 35.8314 33.946 36.0195C33.7247 36.2077 33.4923 36.3018 33.2488 36.3018ZM32.5017 14.7197C32.5017 15.0407 32.4962 15.3838 32.4851 15.749C32.4851 16.1143 32.4796 16.474 32.4685 16.8281C32.4574 17.1712 32.4464 17.5033 32.4353 17.8242C32.4353 18.1452 32.4353 18.4219 32.4353 18.6543C32.6234 18.3001 32.8503 17.863 33.116 17.3428C33.3926 16.8226 33.6749 16.2526 33.9626 15.6328C34.2615 15.002 34.5492 14.3268 34.8259 13.6074C35.1137 12.888 35.3682 12.152 35.5896 11.3994C35.822 10.6468 36.0046 9.88314 36.1374 9.1084C36.2813 8.33366 36.3533 7.57552 36.3533 6.83398C36.3533 6.43555 36.3311 6.05924 36.2868 5.70508C36.2536 5.33984 36.1817 5.02441 36.071 4.75879C35.9714 4.49316 35.8275 4.28288 35.6394 4.12793C35.4623 3.96191 35.2243 3.87891 34.9255 3.87891C34.6156 3.87891 34.3389 4.02279 34.0954 4.31055C33.852 4.58724 33.6417 4.98014 33.4646 5.48926C33.2875 5.9873 33.1381 6.57943 33.0163 7.26562C32.8946 7.95182 32.795 8.69889 32.7175 9.50684C32.64 10.3037 32.5847 11.1504 32.5515 12.0469C32.5183 12.9323 32.5017 13.8232 32.5017 14.7197ZM34.3445 31.7861C34.3445 30.9118 34.2891 30.0762 34.1785 29.2793C34.0678 28.4824 33.9239 27.7132 33.7468 26.9717C33.5697 26.2412 33.365 25.5273 33.1326 24.8301C32.9001 24.1439 32.6677 23.4688 32.4353 22.8047V25.627C32.4353 26.4238 32.4298 27.2207 32.4187 28.0176C32.4187 28.8255 32.4242 29.6003 32.4353 30.3418C32.4464 31.0833 32.463 31.7751 32.4851 32.417C32.5183 33.0589 32.5626 33.6178 32.6179 34.0938C32.6732 34.5697 32.7507 34.9404 32.8503 35.2061C32.961 35.4827 33.0938 35.6211 33.2488 35.6211C33.4148 35.6211 33.5642 35.5547 33.697 35.4219C33.8409 35.3001 33.9571 35.0898 34.0456 34.791C34.1452 34.5033 34.2172 34.1104 34.2615 33.6123C34.3168 33.1253 34.3445 32.5166 34.3445 31.7861ZM42.8745 20.3975C42.797 20.6188 42.6753 20.9176 42.5093 21.2939C42.3432 21.6702 42.1163 22.041 41.8286 22.4062C41.5519 22.7604 41.2088 23.0648 40.7993 23.3193C40.4009 23.5739 39.936 23.6901 39.4048 23.668C38.9288 23.6348 38.5304 23.4964 38.2094 23.2529C37.8885 23.0094 37.6284 22.6387 37.4292 22.1406C37.23 21.6315 37.0861 20.9951 36.9975 20.2314C36.909 19.4567 36.8647 18.527 36.8647 17.4424C36.8647 16.402 36.8924 15.4668 36.9477 14.6367C37.0031 13.7956 37.075 13.054 37.1635 12.4121C36.6544 12.4342 36.2117 12.4453 35.8354 12.4453C35.4481 12.4453 35.1769 12.4453 35.0219 12.4453C34.701 12.4453 34.3856 12.4232 34.0757 12.3789C33.7547 12.3346 33.4559 12.2572 33.1792 12.1465C32.9025 12.0358 32.6479 11.8919 32.4155 11.7148C32.1831 11.5267 31.9894 11.2943 31.8344 11.0176L31.9009 10.8682C31.9119 10.8903 31.9673 10.9456 32.0669 11.0342C32.1554 11.1117 32.3214 11.1947 32.5649 11.2832C32.8084 11.3717 33.1404 11.4548 33.561 11.5322C33.9816 11.5986 34.5239 11.6318 35.188 11.6318H37.2632C37.4402 10.6357 37.6173 9.89421 37.7944 9.40723C37.9826 8.90918 38.1098 8.59375 38.1762 8.46094C38.2648 8.27279 38.3921 8.1123 38.5581 7.97949C38.7352 7.84668 38.8846 7.78027 39.0063 7.78027C39.2387 7.78027 39.4269 8.00163 39.5708 8.44434C39.7147 8.88704 39.7866 9.57324 39.7866 10.5029C39.7866 10.6689 39.7811 10.846 39.77 11.0342C39.7589 11.2113 39.7534 11.3939 39.7534 11.582C40.2846 11.571 40.7882 11.5599 41.2641 11.5488C41.7511 11.5378 42.1828 11.5267 42.5591 11.5156C42.9464 11.5046 43.2674 11.4935 43.5219 11.4824C43.7876 11.4714 43.9591 11.4603 44.0366 11.4492C44.0919 11.4492 44.186 11.4437 44.3188 11.4326C44.4516 11.4215 44.5402 11.416 44.5844 11.416C44.7615 11.416 44.8501 11.4714 44.8501 11.582C44.8501 11.737 44.8003 11.8809 44.7007 12.0137C44.6121 12.1354 44.424 12.2074 44.1362 12.2295C44.0809 12.2406 43.9148 12.2516 43.6382 12.2627C43.3725 12.2627 43.035 12.2682 42.6255 12.2793C42.216 12.2904 41.7566 12.307 41.2475 12.3291C40.7384 12.3402 40.2182 12.3568 39.687 12.3789C39.5763 13.3197 39.3771 14.349 39.0893 15.4668C38.8016 16.5736 38.3976 17.7633 37.8774 19.0361C37.9217 19.7666 37.9826 20.3753 38.06 20.8623C38.1486 21.3493 38.2648 21.7422 38.4087 22.041C38.5525 22.3288 38.7296 22.5335 38.9399 22.6553C39.1613 22.777 39.4214 22.8379 39.7202 22.8379C40.0412 22.8379 40.34 22.777 40.6167 22.6553C40.8934 22.5335 41.1424 22.3841 41.3637 22.207C41.5962 22.0189 41.7954 21.8197 41.9614 21.6094C42.1385 21.388 42.2824 21.1833 42.393 20.9951C42.5148 20.807 42.6033 20.652 42.6587 20.5303C42.7251 20.4085 42.7638 20.3421 42.7749 20.3311L42.8745 20.3975ZM39.0395 12.3789C38.8514 12.3789 38.6688 12.3844 38.4917 12.3955C38.3146 12.4066 38.132 12.4121 37.9438 12.4121C37.9106 13.043 37.8829 13.6904 37.8608 14.3545C37.8497 15.0186 37.8442 15.6494 37.8442 16.2471V18.123C38.1652 17.1159 38.4253 16.1364 38.6245 15.1846C38.8348 14.2327 38.9731 13.2975 39.0395 12.3789ZM38.0102 11.6318C38.1873 11.6318 38.3644 11.6263 38.5415 11.6152C38.7296 11.5931 38.9178 11.582 39.1059 11.582V11.0176C39.1059 10.4642 39.0893 10.0215 39.0561 9.68945C39.0229 9.35742 38.9842 9.10286 38.9399 8.92578C38.9067 8.73763 38.8624 8.61589 38.8071 8.56055C38.7628 8.49414 38.7241 8.46094 38.6909 8.46094C38.6023 8.46094 38.5249 8.54395 38.4585 8.70996C38.3921 8.87598 38.3312 9.10286 38.2759 9.39062C38.2205 9.66732 38.1707 9.99935 38.1264 10.3867C38.0822 10.7741 38.0434 11.1891 38.0102 11.6318Z" fill="black"/>
</svg>
